<svg width="138" height="135" viewBox="0 0 138 135" fill="none" xmlns="http://www.w3.org/2000/svg">
<path fill-rule="evenodd" clip-rule="evenodd" d="M54.7469 114.342C52.8136 113.187 51.4122 111.177 50.6136 108.516L77.189 77.2568L77.7906 79.534L83.1725 99.7965C76.366 107.687 69.0482 113.328 62.7458 115.021C59.4907 115.899 56.7942 115.592 54.7469 114.342Z" stroke="#504587" stroke-width="2" stroke-miterlimit="10" stroke-linecap="round" stroke-linejoin="round"/>
<path fill-rule="evenodd" clip-rule="evenodd" d="M49.8787 99.2879C49.9401 98.6854 49.9859 98.0735 50.0708 97.4317C50.6573 92.9882 51.9606 87.8809 54.0712 82.3507C55.2105 79.4094 56.4951 76.475 57.9368 73.6345C60.3432 68.7871 63.1504 64.126 66.1821 59.8387C71.5687 52.2181 77.6525 45.7865 83.5021 41.6386C86.6286 39.4056 89.7016 37.8331 92.5528 37.0602C95.4314 36.277 97.8568 36.3949 99.8207 37.2491C106.722 40.3353 107.649 52.9544 101.239 69.7115C98.8161 76.0139 95.6592 82.2239 91.9519 87.9984L84.2115 58.8687L71.4834 73.8473L61.2016 85.9465L54.3601 94.0027L49.8787 99.2879Z" stroke="#504587" stroke-width="2" stroke-miterlimit="10" stroke-linecap="round" stroke-linejoin="round"/>
<path d="M49.8801 99.2877L28.1428 86.2959C28.5675 81.4093 29.9282 75.6706 32.3353 69.3588C40.6065 47.7746 57.8356 27.5493 70.8169 24.0682C74.4916 23.095 77.4357 23.5229 79.5937 25.159L99.8222 37.2489C97.8582 36.3947 95.4328 36.2769 92.5542 37.06C89.7031 37.8329 86.63 39.4054 83.5035 41.6385C77.654 45.7864 71.5702 52.2179 66.1835 59.8386C63.1519 64.1258 60.3447 68.787 57.9382 73.6344C56.4965 76.4748 55.212 79.4093 54.0727 82.3506C51.962 87.8808 50.6588 92.988 50.0722 97.4316C49.9873 98.0733 49.9416 98.6852 49.8801 99.2877Z" stroke="#504587" stroke-width="2" stroke-miterlimit="10" stroke-linecap="round" stroke-linejoin="round"/>
<path d="M54.7487 114.343L33.0428 101.37C31.1095 100.214 29.7081 98.2046 28.8938 95.5339L50.6154 108.516C51.414 111.178 52.8155 113.187 54.7487 114.343Z" stroke="#504587" stroke-width="2" stroke-miterlimit="10" stroke-linecap="round" stroke-linejoin="round"/>
<path d="M91.9536 87.9978L77.7921 79.5339L77.1906 77.2567L71.4851 73.8467L84.2132 58.8682L91.9536 87.9978Z" stroke="#504587" stroke-width="2" stroke-miterlimit="10" stroke-linecap="round" stroke-linejoin="round"/>
<path d="M50.614 108.516L28.8923 95.5333L33.8473 89.7055L49.8792 99.2873L54.3606 94.0021L61.2021 85.9459L71.484 73.8467L77.1895 77.2567L50.614 108.516Z" stroke="#504587" stroke-width="2" stroke-miterlimit="10" stroke-linecap="round" stroke-linejoin="round"/>
</svg>
