<svg width="108" height="97" viewBox="0 0 108 97" fill="none" xmlns="http://www.w3.org/2000/svg">
<path fill-rule="evenodd" clip-rule="evenodd" d="M76.5735 9.6674L6.40237 50.1807C9.58887 40.7098 20.6278 29.1218 35.9098 20.2988C51.2364 11.4075 66.6837 7.7461 76.5735 9.6674Z" fill="#D22730" stroke="#26213F" stroke-width="2" stroke-miterlimit="10" stroke-linecap="round" stroke-linejoin="round"/>
<path fill-rule="evenodd" clip-rule="evenodd" d="M42.1528 37.2983L36.9802 49.9509L30.6852 65.2441L30.6011 65.4622C30.4567 65.5032 30.294 65.5124 30.1496 65.5533C27.1148 66.1184 24.214 66.4789 21.6179 66.4939C19.384 66.5542 17.3655 66.4053 15.544 66.0155C11.4574 65.1952 8.38452 63.3657 6.73232 60.504C6.32845 59.8045 6.0191 59.0504 5.75963 58.3099L42.1528 37.2983Z" fill="#D22730" stroke="#26213F" stroke-width="2" stroke-miterlimit="10" stroke-linecap="round" stroke-linejoin="round"/>
<path d="M30.5513 65.4482L43.1448 87.2607C31.7302 89.6114 22.6486 88.0714 19.3075 82.2844L6.73242 60.5037C8.38462 63.3654 11.4575 65.1949 15.5441 66.0151C17.3656 66.4049 19.3842 66.5538 21.618 66.4935C24.2456 66.4603 27.1333 66.1498 30.1497 65.553C30.2625 65.5302 30.4568 65.5028 30.5513 65.4482Z" fill="#D22730" stroke="#26213F" stroke-width="2" stroke-miterlimit="10" stroke-linecap="round" stroke-linejoin="round"/>
<path d="M85.2538 15.17C86.8692 17.9681 86.9304 21.494 85.6421 25.3751C85.0872 27.1792 84.1937 29.0518 83.043 30.988C81.6689 33.2652 79.9562 35.6107 77.9179 37.9745C72.6044 44.0524 65.1069 50.2041 56.0637 55.4252C55.213 55.9164 54.3307 56.4257 53.4432 56.8533C50.1926 58.6453 46.8896 60.1283 43.7206 61.4068L45.684 56.5848L48.8354 48.8724L52.4521 40.001L57.1017 28.6254L83.8216 13.1987C84.446 13.7709 84.8499 14.4704 85.2538 15.17Z" fill="#D22730" stroke="#26213F" stroke-width="2" stroke-miterlimit="10" stroke-linecap="round" stroke-linejoin="round"/>
<path d="M85.2531 15.1698L97.8465 36.9823C103.427 46.6484 90.4294 64.6669 68.6565 77.2375C64.5288 79.6206 60.3304 81.663 56.3133 83.2191L43.7199 61.4066C46.8889 60.1281 50.1919 58.6451 53.4425 56.8531C54.33 56.4255 55.2123 55.9162 56.063 55.425C65.1062 50.2039 72.6037 44.0522 77.9173 37.9743C79.9555 35.6105 81.6682 33.265 83.0423 30.9878C84.1931 29.0516 85.0866 27.179 85.6414 25.3749C86.9612 21.4756 86.8686 17.9679 85.2531 15.1698Z" fill="#D22730" stroke="#26213F" stroke-width="2" stroke-miterlimit="10" stroke-linecap="round" stroke-linejoin="round"/>
<path d="M42.1543 37.2979L48.8182 48.8401L45.6851 56.5844L43.7217 61.4064L49.6146 71.6131L43.1645 87.2925L30.5527 65.4482L30.6552 65.2619L36.9816 49.9505L42.1543 37.2979Z" fill="#D22730" stroke="#26213F" stroke-width="2" stroke-miterlimit="10" stroke-linecap="round" stroke-linejoin="round"/>
<path d="M76.5735 9.6671L79.9146 15.4541L57.1019 28.625L52.4838 39.9824L48.8172 48.8401L42.1533 37.298L9.76182 55.9992L6.40234 50.1804L76.5735 9.6671Z" fill="#D22730" stroke="#26213F" stroke-width="2" stroke-miterlimit="10" stroke-linecap="round" stroke-linejoin="round"/>
</svg>
