<svg width="66" height="66" viewBox="0 0 66 66" fill="none" xmlns="http://www.w3.org/2000/svg">
<circle cx="33" cy="33" r="33" fill="#D22730"/>
<g clip-path="url(#clip0)">
<path d="M33 7.9325C19.2156 7.9325 8 19.1471 8 32.9325C8 46.7179 19.2156 57.9325 33 57.9325C46.7844 57.9325 58 46.7179 58 32.9325C58 19.1471 46.7844 7.9325 33 7.9325ZM25.0292 13.6908C21.4542 17.421 17.7458 23.094 17.1698 30.8492H12.2719C13.0469 23.0877 18.099 16.5731 25.0292 13.6908ZM12.2719 35.0158H17.1698C17.7458 42.771 21.4542 48.444 25.0292 52.1742C18.099 49.2919 13.0469 42.7773 12.2719 35.0158ZM30.9167 51.8908C27.4281 49.094 22.1135 43.5085 21.3469 35.0158H30.9167V51.8908ZM30.9167 30.8492H21.3458C22.1052 22.27 27.4198 16.7148 30.9167 13.944V30.8492ZM53.7281 30.8492H48.8302C48.2542 23.094 44.5458 17.421 40.9708 13.6908C47.901 16.5731 52.9531 23.0877 53.7281 30.8492ZM35.0833 13.9731C38.5719 16.769 43.8865 22.3554 44.6531 30.8492H35.0833V13.9731ZM35.0833 51.921V35.0158H44.6542C43.8948 43.594 38.5812 49.1492 35.0833 51.921ZM40.9708 52.1742C44.5458 48.444 48.2542 42.771 48.8302 35.0158H53.7281C52.9531 42.7773 47.901 49.2919 40.9708 52.1742Z" fill="white"/>
</g>
<defs>
<clipPath id="clip0">
<rect width="54" height="54" fill="white" transform="translate(6 6)"/>
</clipPath>
</defs>
</svg>
