<svg width="208" height="31" viewBox="0 0 208 31" fill="none" xmlns="http://www.w3.org/2000/svg">
<g clip-path="url(#clip0)">
<path fill-rule="evenodd" clip-rule="evenodd" d="M85.582 3.24829C78.8273 3.24829 73.3262 8.73194 73.3262 15.5428C73.3262 22.3188 78.7925 27.8374 85.582 27.8374C87.5666 27.8374 89.4467 27.3484 91.1179 26.5101L80.1852 15.5428L91.1179 4.57554C89.4467 3.70235 87.5666 3.24829 85.582 3.24829ZM94.4256 24.0303L85.9649 15.5428L94.4256 7.05541C96.5495 9.25586 97.8377 12.2596 97.8377 15.5428C97.8377 18.8261 96.5147 21.8298 94.4256 24.0303Z" fill="#D22730"/>
<path fill-rule="evenodd" clip-rule="evenodd" d="M48.9182 2.89893C44.1482 2.89893 40.0049 5.62329 37.9855 9.63998H59.8509C57.7967 5.62329 53.6882 2.89893 48.9182 2.89893ZM36.7669 13.7265C36.6973 14.2155 36.6973 14.7045 36.6973 15.1935C36.6973 19.2102 38.6122 22.7728 41.6065 25.0082L48.0478 13.7265H36.7669ZM45.1927 26.8593L52.7482 13.6916H61.0695C61.1392 14.1806 61.1392 14.6696 61.1392 15.1586C61.1392 21.9345 55.6728 27.4531 48.8834 27.4531C47.5952 27.4531 46.3417 27.2435 45.1927 26.8593Z" fill="#D22730"/>
<path fill-rule="evenodd" clip-rule="evenodd" d="M12.2558 2.89893C7.48577 2.89893 3.34248 5.62329 1.32307 9.63998H23.1885C21.1342 5.62329 17.0258 2.89893 12.2558 2.89893ZM0.0696351 13.7265C0.0348175 14.1806 0 14.6696 0 15.1586C0 19.2102 1.91496 22.7728 4.90927 25.0082L11.4202 13.7265H0.0696351ZM8.5303 26.8593L16.0857 13.6916H24.4071C24.4767 14.1806 24.4767 14.6696 24.4767 15.1586C24.4767 21.9345 19.0104 27.4531 12.221 27.4531C10.9327 27.4531 9.67928 27.2435 8.5303 26.8593Z" fill="#D22730"/>
<path fill-rule="evenodd" clip-rule="evenodd" d="M151.839 0.034668H141.324L139.688 7.43934C139.375 8.94124 138.609 9.53501 137.529 9.84936L138.887 12.5039C141.081 11.8053 142.717 10.4781 143.309 7.89341L144.423 3.00352H147.174L145.677 12.2943H149.855L151.839 0.034668Z" fill="#26213F"/>
<path fill-rule="evenodd" clip-rule="evenodd" d="M177.882 2.02569C177.743 2.93382 177.604 3.84194 177.43 4.75006C176.211 4.75006 174.957 4.75006 173.739 4.75006C173.913 3.70222 174.087 2.68932 174.261 1.64149C174.331 1.11757 174.4 0.593657 174.47 0.0697416C172.033 0.0348138 170.431 -0.244608 170.083 1.95584L168.377 12.2944H172.52L173.286 7.54427H176.977L176.211 12.2944H180.285C180.842 8.73182 181.434 5.20412 181.991 1.64149C182.025 1.46685 182.269 -0.000113887 182.13 -0.000113887C179.519 0.0348138 178.265 -0.314463 177.882 2.02569Z" fill="#26213F"/>
<path fill-rule="evenodd" clip-rule="evenodd" d="M129.278 9.08095C128.93 9.50008 127.398 10.1986 126.875 10.3383L128.094 12.8531C130.462 12.5388 132.028 11.0369 132.899 9.81443C134.779 7.15992 136.659 2.89874 138.33 0.034668H134.5L131.262 5.97238L129.939 1.4667C129.626 0.349017 128.79 0.034668 127.258 0.034668C126.597 0.034668 125.831 0.174379 125.309 0.418873L127.885 7.78862C128.059 8.34747 128.721 8.94124 129.278 9.08095Z" fill="#26213F"/>
<path fill-rule="evenodd" clip-rule="evenodd" d="M158.42 9.08121C158.072 9.50034 156.54 10.1989 156.018 10.3386L157.236 12.8534C159.604 12.5391 161.171 11.0372 162.041 9.81469C163.956 7.16018 165.836 2.899 167.473 0.0349277H163.643L160.405 5.93771L159.082 1.43204C158.768 0.314349 157.933 0 156.401 0C155.739 0 154.938 0.139711 154.416 0.384205L156.993 7.75395C157.236 8.34772 157.863 8.9415 158.42 9.08121Z" fill="#26213F"/>
<path fill-rule="evenodd" clip-rule="evenodd" d="M122.697 0.209473H110.511L110.059 3.00369H114.097L112.496 12.1198H116.604L118.171 3.00369H122.245L122.697 0.209473Z" fill="#26213F"/>
<path fill-rule="evenodd" clip-rule="evenodd" d="M126.284 26.0559C126.772 26.1257 127.294 26.1607 127.816 26.1607C131.263 26.1607 134.188 25.008 134.188 21.8645C134.188 19.7689 132.656 18.4766 129.801 18.4766C125.24 18.4766 122.594 21.7248 122.594 25.9162C122.594 28.9549 124.474 30.7013 127.921 30.7013C129.801 30.7013 131.542 30.2821 133.109 29.374L131.82 26.8243C130.114 27.7324 126.354 28.8152 126.284 26.0559ZM129.139 21.2359C129.94 21.2359 130.323 21.655 130.323 22.2488C130.323 23.4712 129.105 24.0999 127.677 24.0999C127.329 24.0999 126.911 24.065 126.493 24.065C126.841 22.4583 127.747 21.2359 129.139 21.2359Z" fill="#26213F"/>
<path fill-rule="evenodd" clip-rule="evenodd" d="M149.123 18.4067H139.096L137.598 25.6368C137.285 27.1037 136.484 27.6277 135.475 27.9071L136.867 30.6664C138.956 29.9678 140.558 28.7104 141.08 26.1607L142.125 21.0962H144.771L143.343 30.4568H147.347L149.123 18.4067Z" fill="#26213F"/>
<path fill-rule="evenodd" clip-rule="evenodd" d="M154.486 25.9861C154.973 26.0559 155.495 26.0908 156.018 26.0908C159.464 26.0908 162.389 24.9382 162.389 21.7947C162.389 19.6991 160.857 18.4067 158.002 18.4067C153.441 18.4067 150.795 21.655 150.795 25.8463C150.795 28.885 152.675 30.6314 156.122 30.6314C158.002 30.6314 159.743 30.2123 161.345 29.3042L160.056 26.6846C158.49 27.5927 154.938 29.0597 154.486 25.9861ZM157.341 21.201C158.141 21.201 158.524 21.6201 158.524 22.2139C158.524 23.4363 157.306 24.065 155.878 24.065C155.53 24.065 155.112 24.0301 154.694 24.0301C155.077 22.3885 155.948 21.201 157.341 21.201Z" fill="#26213F"/>
<path fill-rule="evenodd" clip-rule="evenodd" d="M169.213 19.6642C169.213 18.8608 168.726 18.3718 167.786 18.3718L165.522 18.4068L163.607 30.387H167.577L169.213 19.9436C169.213 19.8039 169.213 19.7689 169.213 19.6642ZM177.604 18.3718L172.834 23.8904L176.803 30.1774C175.863 30.5616 175.062 30.6315 174.262 30.6315C172.73 30.6315 172.103 30.1774 171.65 29.409L168.621 24.2048L173.739 18.4068L177.604 18.3718Z" fill="#26213F"/>
<path fill-rule="evenodd" clip-rule="evenodd" d="M184.116 30.6315C188.677 30.6315 191.323 27.6975 191.323 23.4363C191.323 20.2579 189.374 18.3718 185.718 18.3718C181.087 18.3718 178.197 21.3407 178.197 25.6019C178.232 28.7803 180.426 30.6315 184.116 30.6315ZM184.43 27.7674C183.176 27.7674 182.445 26.964 182.445 25.4971C182.445 23.5411 183.385 21.2359 185.335 21.2359C186.693 21.2359 187.354 22.0742 187.354 23.5062C187.354 25.532 186.379 27.7674 184.43 27.7674Z" fill="#26213F"/>
<path fill-rule="evenodd" clip-rule="evenodd" d="M206.155 18.4067C205.633 18.4067 204.797 18.5814 204.31 18.8608L201.246 26.1607L200.271 19.8388C200.132 18.756 199.122 18.4067 197.694 18.4067C197.103 18.4067 196.302 18.6163 195.849 18.8608L192.785 30.4219H195.849L197.694 23.1918L198.495 30.4219H201.42L204.449 23.2617L203.996 30.4219H207.792L208.035 18.4067H206.155Z" fill="#26213F"/>
<path fill-rule="evenodd" clip-rule="evenodd" d="M122.036 18.3369H110.511L110.059 21.1661H113.889L112.391 30.2822H116.291L117.788 21.1661H121.618L122.036 18.3369Z" fill="#26213F"/>
</g>
<defs>
<clipPath id="clip0">
<rect width="208" height="31" fill="white"/>
</clipPath>
</defs>
</svg>
