<svg width="31" height="30" viewBox="0 0 31 30" fill="none" xmlns="http://www.w3.org/2000/svg">
<path d="M18.6183 2.42437C20.5815 2.42437 22.5005 2.99176 24.1328 4.05479C25.7651 5.11783 27.0373 6.62876 27.7885 8.39651C28.5398 10.1643 28.7363 12.1095 28.3533 13.9861C27.9704 15.8627 27.025 17.5866 25.6369 18.9395C24.2488 20.2925 22.4802 21.2139 20.5548 21.5872C18.6294 21.9605 16.6336 21.7689 14.8199 21.0367C13.0063 20.3044 11.4561 19.0645 10.3654 17.4735C9.27476 15.8826 8.69263 14.0121 8.69263 12.0987C8.69263 9.53293 9.73837 7.07222 11.5998 5.25792C13.4612 3.44363 15.9859 2.42437 18.6183 2.42437ZM18.6183 0.00238276C15.7556 0.00521506 12.9818 0.972162 10.7665 2.73952C8.55129 4.50688 7.03068 6.96607 6.46216 9.70075C5.89364 12.4354 6.31214 15.2776 7.6468 17.746C8.98146 20.2145 11.1503 22.1576 13.7861 23.2464C16.8173 24.4844 20.2284 24.5005 23.2718 23.2912C26.3151 22.0819 28.7424 19.7459 30.0216 16.7952C31.3008 13.8445 31.3275 10.5198 30.0959 7.54992C28.8642 4.58004 26.4748 2.20726 23.4512 0.951684C21.9224 0.320763 20.2786 -0.00292019 18.6183 1.985e-05V0.00238276Z" fill="black"/>
<path d="M0.520437 27.778L6.75212 21.7041C7.35213 21.1193 8.23882 21.0265 8.72247 21.4979C9.20612 21.9693 9.11097 22.8336 8.51095 23.4184L2.27927 29.4929C1.67926 30.0777 0.792565 30.1704 0.308916 29.699C-0.174733 29.2276 -0.0801853 28.3634 0.520437 27.778Z" fill="black"/>
</svg>
