<svg width="18" height="18" viewBox="0 0 18 18" fill="none" xmlns="http://www.w3.org/2000/svg">
<path d="M9.00013 3.36987C7.14001 3.36987 5.62695 4.8833 5.62695 6.74305C5.62695 8.60279 7.14001 10.1162 9.00013 10.1162C10.8602 10.1162 12.3733 8.60316 12.3733 6.74305C12.3733 4.8833 10.8602 3.36987 9.00013 3.36987ZM9.00013 8.61703C7.96681 8.61703 7.12614 7.77636 7.12614 6.74305C7.12614 5.70973 7.96681 4.86906 9.00013 4.86906C10.0334 4.86906 10.8741 5.70973 10.8741 6.74305C10.8741 7.77636 10.0334 8.61703 9.00013 8.61703Z" fill="#D22730"/>
<path d="M9.00025 0C5.28039 0 2.25391 3.02649 2.25391 6.74635C2.25391 10.2406 7.80502 16.6429 8.43768 17.3613C8.43768 17.3613 8.66788 17.6389 9.00025 17.6389C9.33262 17.6389 9.56282 17.3613 9.56282 17.3613C10.1955 16.6429 15.7466 10.2406 15.7466 6.74635C15.7466 3.02649 12.7201 0 9.00025 0ZM9.00025 15.7134C7.14126 13.4908 3.75309 8.97789 3.75309 6.74635C3.75309 3.85291 6.10682 1.49919 9.00025 1.49919C11.8937 1.49919 14.2474 3.85291 14.2474 6.74635C14.2474 8.97789 10.8592 13.4908 9.00025 15.7134Z" fill="#D22730"/>
</svg>
