<svg width="66" height="66" viewBox="0 0 66 66" fill="none" xmlns="http://www.w3.org/2000/svg">
<circle cx="33" cy="33" r="33" fill="#D22730"/>
<mask id="path-2-outside-1" maskUnits="userSpaceOnUse" x="9.87036" y="8.87061" width="48" height="48" fill="black">
<rect fill="white" x="9.87036" y="8.87061" width="48" height="48"/>
<path d="M56.1296 32.5002C56.1296 44.9982 45.998 55.1299 33.5 55.1299C21.002 55.1299 10.8704 44.9982 10.8704 32.5002C10.8704 20.0022 21.002 9.87061 33.5 9.87061C45.998 9.87061 56.1296 20.0022 56.1296 32.5002ZM14.2648 32.5002C14.2648 43.1235 22.8767 51.7354 33.5 51.7354C44.1233 51.7354 52.7352 43.1235 52.7352 32.5002C52.7352 21.8769 44.1233 13.265 33.5 13.265C22.8767 13.265 14.2648 21.8769 14.2648 32.5002Z"/>
</mask>
<path d="M56.1296 32.5002C56.1296 44.9982 45.998 55.1299 33.5 55.1299C21.002 55.1299 10.8704 44.9982 10.8704 32.5002C10.8704 20.0022 21.002 9.87061 33.5 9.87061C45.998 9.87061 56.1296 20.0022 56.1296 32.5002ZM14.2648 32.5002C14.2648 43.1235 22.8767 51.7354 33.5 51.7354C44.1233 51.7354 52.7352 43.1235 52.7352 32.5002C52.7352 21.8769 44.1233 13.265 33.5 13.265C22.8767 13.265 14.2648 21.8769 14.2648 32.5002Z" fill="white"/>
<path d="M56.1296 32.5002C56.1296 44.9982 45.998 55.1299 33.5 55.1299C21.002 55.1299 10.8704 44.9982 10.8704 32.5002C10.8704 20.0022 21.002 9.87061 33.5 9.87061C45.998 9.87061 56.1296 20.0022 56.1296 32.5002ZM14.2648 32.5002C14.2648 43.1235 22.8767 51.7354 33.5 51.7354C44.1233 51.7354 52.7352 43.1235 52.7352 32.5002C52.7352 21.8769 44.1233 13.265 33.5 13.265C22.8767 13.265 14.2648 21.8769 14.2648 32.5002Z" stroke="white" stroke-width="2" mask="url(#path-2-outside-1)"/>
<path d="M34.2674 31.2211L34.2675 31.2211C35.9196 30.8897 37.0061 29.5626 36.946 28.1287C36.8813 26.5926 35.4713 25.2627 33.6395 25.1995L34.2674 31.2211ZM34.2674 31.2211C32.4997 31.5759 31.2053 32.9939 31.2053 34.7219V37.087C31.2053 38.3107 32.2757 39.228 33.5 39.228C34.7244 39.228 35.7947 38.3107 35.7947 37.087V35.2753M34.2674 31.2211L35.7947 35.2753M27.9053 22.971L27.9054 22.971C29.4982 21.5682 31.5979 20.844 33.8081 20.9205L27.9053 22.971ZM27.9053 22.971C26.3378 24.3516 25.4623 26.2182 25.4623 28.2254C25.4623 29.4492 26.5326 30.3664 27.757 30.3664C28.9814 30.3664 30.0517 29.4492 30.0517 28.2254C30.0517 27.4227 30.3999 26.6633 31.056 26.0856M27.9053 22.971L31.056 26.0856M35.7947 35.2753C39.2598 34.3379 41.675 31.3641 41.5317 27.9605C41.5317 27.9605 41.5317 27.9605 41.5317 27.9605L41.0322 27.9815L35.7947 35.2753ZM31.056 26.0856C31.7371 25.486 32.6504 25.166 33.6394 25.1995L31.056 26.0856ZM31.2053 42.8306C31.2053 44.0544 32.2757 44.9716 33.5 44.9716C34.7244 44.9716 35.7947 44.0544 35.7947 42.8306C35.7947 41.6069 34.7244 40.6896 33.5 40.6896C32.2757 40.6896 31.2053 41.6069 31.2053 42.8306Z" fill="white" stroke="white"/>
</svg>
