<svg width="178" height="170" viewBox="0 0 178 170" fill="none" xmlns="http://www.w3.org/2000/svg">
<path fill-rule="evenodd" clip-rule="evenodd" d="M146.608 67.2425C146.818 70.1297 145.737 73.0871 143.525 75.8908L91.0194 70.9776L92.9725 68.6646L110.33 48.053C123.656 49.3965 134.991 52.9378 141.422 58.3223C144.747 61.1009 146.414 64.1654 146.608 67.2425Z" stroke="#E36269" stroke-width="2" stroke-miterlimit="10" stroke-linecap="round" stroke-linejoin="round"/>
<path fill-rule="evenodd" clip-rule="evenodd" d="M134.353 83.4713C133.674 83.8511 132.996 84.2543 132.258 84.6384C127.148 87.2988 120.811 89.6945 113.433 91.5524C109.497 92.5229 105.461 93.3355 101.408 93.9134C94.5304 94.9562 87.5536 95.4398 80.8047 95.4114C68.8101 95.3633 57.5527 93.7041 48.8719 90.6069C44.2152 88.9634 40.2932 86.8888 37.3765 84.458C34.4288 82.0059 32.7637 79.3661 32.214 76.6688C30.3713 67.128 42.9699 56.8439 65.336 51.2298C73.7568 49.1309 82.6218 47.8728 91.4345 47.5152L66.4841 77.1503L91.6387 79.498L111.958 81.3949L125.484 82.6531L134.353 83.4713Z" stroke="#E36269" stroke-width="2" stroke-miterlimit="10" stroke-linecap="round" stroke-linejoin="round"/>
<path d="M134.352 83.471L136.712 115.934C131.256 119.092 124.212 121.893 115.793 124.015C86.9731 131.231 52.9757 128.016 39.7359 116.921C36.0009 113.771 34.2795 110.356 34.4096 106.878L32.2131 76.6685C32.7627 79.3658 34.4278 82.0055 37.3755 84.4577C40.2922 86.8885 44.2142 88.963 48.8709 90.6066C57.5517 93.7037 68.8091 95.3629 80.8037 95.4111C87.5526 95.4395 94.5294 94.9558 101.407 93.9131C105.46 93.3352 109.496 92.5226 113.432 91.5521C120.81 89.6942 127.147 87.2985 132.257 84.638C132.995 84.254 133.673 83.8508 134.352 83.471Z" stroke="#E36269" stroke-width="2" stroke-miterlimit="10" stroke-linecap="round" stroke-linejoin="round"/>
<path d="M146.607 67.2424L148.964 99.6586C149.174 102.546 148.092 105.503 145.882 108.33L143.523 75.8907C145.735 73.087 146.817 70.1295 146.607 67.2424Z" stroke="#E36269" stroke-width="2" stroke-miterlimit="10" stroke-linecap="round" stroke-linejoin="round"/>
<path d="M91.4333 47.5151L92.9711 68.6643L91.018 70.9772L91.6375 79.4979L66.4829 77.1502L91.4333 47.5151Z" stroke="#E36269" stroke-width="2" stroke-miterlimit="10" stroke-linecap="round" stroke-linejoin="round"/>
<path d="M143.525 75.8906L145.883 108.33L136.094 107.414L134.353 83.4714L125.485 82.6532L111.959 81.3949L91.6391 79.498L91.0195 70.9773L143.525 75.8906Z" stroke="#E36269" stroke-width="2" stroke-miterlimit="10" stroke-linecap="round" stroke-linejoin="round"/>
</svg>
