<svg width="138" height="136" viewBox="0 0 138 136" fill="none" xmlns="http://www.w3.org/2000/svg">
<path fill-rule="evenodd" clip-rule="evenodd" d="M55.0379 114.614C53.1047 113.458 51.7032 111.449 50.9046 108.787L77.4801 77.5283L78.0816 79.8055L83.4635 100.068C76.657 107.959 69.3392 113.599 63.0369 115.293C59.7818 116.17 57.0852 115.864 55.0379 114.614Z" stroke="#E36269" stroke-width="2" stroke-miterlimit="10" stroke-linecap="round" stroke-linejoin="round"/>
<path fill-rule="evenodd" clip-rule="evenodd" d="M50.1697 99.5593C50.2311 98.9569 50.2769 98.345 50.3618 97.7032C50.9484 93.2597 52.2516 88.1524 54.3622 82.6222C55.5016 79.6809 56.7861 76.7465 58.2278 73.906C60.6343 69.0586 63.4414 64.3975 66.4731 60.1102C71.8597 52.4896 77.9436 46.058 83.7931 41.9101C86.9196 39.6771 89.9926 38.1046 92.8438 37.3317C95.7224 36.5485 98.1478 36.6664 100.112 37.5206C107.013 40.6068 107.94 53.2259 101.53 69.9829C99.1071 76.2854 95.9502 82.4954 92.243 88.2699L84.5025 59.1402L71.7744 74.1188L61.4926 86.218L54.6511 94.2742L50.1697 99.5593Z" stroke="#E36269" stroke-width="2" stroke-miterlimit="10" stroke-linecap="round" stroke-linejoin="round"/>
<path d="M50.1711 99.5591L28.4338 86.5673C28.8585 81.6807 30.2192 75.942 32.6263 69.6301C40.8975 48.046 58.1267 27.8206 71.1079 24.3396C74.7826 23.3664 77.7267 23.7943 79.8847 25.4303L100.113 37.5203C98.1492 36.6661 95.7238 36.5482 92.8452 37.3314C89.9941 38.1043 86.9211 39.6768 83.7945 41.9098C77.945 46.0577 71.8612 52.4893 66.4746 60.1099C63.4429 64.3972 60.6357 69.0584 58.2292 73.9057C56.7875 76.7462 55.503 79.6806 54.3637 82.6219C52.253 88.1521 50.9498 93.2594 50.3632 97.7029C50.2783 98.3447 50.2326 98.9566 50.1711 99.5591Z" stroke="#E36269" stroke-width="2" stroke-miterlimit="10" stroke-linecap="round" stroke-linejoin="round"/>
<path d="M55.0397 114.614L33.3338 101.641C31.4006 100.486 29.9991 98.4761 29.1848 95.8054L50.9064 108.788C51.705 111.449 53.1065 113.459 55.0397 114.614Z" stroke="#E36269" stroke-width="2" stroke-miterlimit="10" stroke-linecap="round" stroke-linejoin="round"/>
<path d="M92.2447 88.2692L78.0831 79.8052L77.4816 77.5281L71.7761 74.1181L84.5042 59.1395L92.2447 88.2692Z" stroke="#E36269" stroke-width="2" stroke-miterlimit="10" stroke-linecap="round" stroke-linejoin="round"/>
<path d="M50.905 108.787L29.1833 95.8046L34.1383 89.9769L50.1702 99.5587L54.6517 94.2735L61.4932 86.2173L71.775 74.1181L77.4805 77.5281L50.905 108.787Z" stroke="#E36269" stroke-width="2" stroke-miterlimit="10" stroke-linecap="round" stroke-linejoin="round"/>
</svg>
