<svg width="66" height="66" viewBox="0 0 66 66" fill="none" xmlns="http://www.w3.org/2000/svg">
<circle cx="33" cy="33" r="33" fill="#D22730"/>
<path d="M52.6875 21.5625H22.7509L48.9886 13.9095C50.4391 14.7188 52.2812 13.676 52.2812 11.9688C52.2812 10.7452 51.2861 9.75 50.0625 9.75C49.2216 9.75 48.4894 10.22 48.1133 10.9096L21.3709 18.7097C18.7783 16.3499 14.5748 18.0818 14.3819 21.5625H13.3125C12.4495 21.5625 11.75 22.262 11.75 23.125V50.6875C11.75 51.5505 12.4495 52.25 13.3125 52.25H52.6875C53.5505 52.25 54.25 51.5505 54.25 50.6875V23.125C54.25 22.262 53.5505 21.5625 52.6875 21.5625ZM18.5625 20.75C19.062 20.75 19.4825 21.097 19.5953 21.5625H17.5297C17.6425 21.097 18.063 20.75 18.5625 20.75ZM51.125 49.125H14.875V24.6875H51.125V49.125Z" fill="white" stroke="white" stroke-width="0.5"/>
<path d="M17 31C17 33.6711 19.1726 35.8438 21.8438 35.8438C24.5149 35.8438 26.6875 33.6711 26.6875 31C26.6875 28.3289 24.5149 26.1562 21.8438 26.1562C19.1726 26.1562 17 28.3289 17 31ZM21.8438 29.2812C22.7912 29.2812 23.5625 30.0526 23.5625 31C23.5625 31.9474 22.7912 32.7188 21.8438 32.7188C20.8963 32.7188 20.125 31.9474 20.125 31C20.125 30.0526 20.8963 29.2812 21.8438 29.2812Z" fill="white" stroke="white" stroke-width="0.5"/>
<path d="M18.5625 46.3438C19.7879 46.3438 20.7812 45.3504 20.7812 44.125C20.7812 42.8996 19.7879 41.9062 18.5625 41.9062C17.3371 41.9062 16.3438 42.8996 16.3438 44.125C16.3438 45.3504 17.3371 46.3438 18.5625 46.3438Z" fill="white" stroke="white" stroke-width="0.5"/>
<path d="M25.125 46.3438C26.3504 46.3438 27.3438 45.3504 27.3438 44.125C27.3438 42.8996 26.3504 41.9062 25.125 41.9062C23.8996 41.9062 22.9062 42.8996 22.9062 44.125C22.9062 45.3504 23.8996 46.3438 25.125 46.3438Z" fill="white" stroke="white" stroke-width="0.5"/>
<path d="M38.9063 47.6563C45.9372 47.6563 51.1157 40.9673 49.2942 34.138C48.8764 32.4982 47.9431 30.7851 46.6031 29.4096C46.5398 29.3336 46.4766 29.2708 46.403 29.2095C45.0094 27.8519 43.299 26.9353 41.6768 26.5189C34.8397 24.6935 28.1562 29.8809 28.1562 36.9063C28.1562 42.8203 32.9566 47.6563 38.9063 47.6563ZM31.8158 39.7103L41.7104 29.8158C42.1917 30.0068 42.6493 30.2454 43.0771 30.5259L32.5258 41.077C32.2453 40.6492 32.0068 40.1917 31.8158 39.7103ZM34.7354 43.2867L45.2866 32.7355C45.5672 33.1633 45.8057 33.6208 45.9967 34.1022L36.1021 43.9968C35.6208 43.8058 35.1632 43.5672 34.7354 43.2867ZM46.4408 38.0774C45.9349 41.3456 43.3456 43.9349 40.0774 44.4408L46.4408 38.0774ZM31.3717 35.7351C31.8776 32.4669 34.4669 29.8777 37.7351 29.3717L31.3717 35.7351Z" fill="white" stroke="white" stroke-width="0.5"/>
</svg>
