<svg width="47" height="39" viewBox="0 0 47 39" fill="none" xmlns="http://www.w3.org/2000/svg">
<path fill-rule="evenodd" clip-rule="evenodd" d="M44.0222 13.5979L7.73187 5.71318C11.7319 3.48256 19.0481 2.95402 26.9515 4.67117C34.891 6.37897 41.2595 9.89799 44.0222 13.5979Z" fill="#D22730" stroke="#26213F" stroke-width="2" stroke-miterlimit="10" stroke-linecap="round" stroke-linejoin="round"/>
<path fill-rule="evenodd" clip-rule="evenodd" d="M23.83 12.3624L18.1756 15.0601L11.3267 18.3077L11.2309 18.3558C11.1693 18.3252 11.1113 18.2781 11.0497 18.2475C9.84606 17.5038 8.75094 16.7321 7.86566 15.937C7.08931 15.2689 6.45046 14.5963 5.95271 13.9027C4.81924 12.3649 4.34074 10.7971 4.6623 9.31717C4.7409 8.95539 4.86839 8.60424 5.0086 8.27307L23.83 12.3624Z" fill="#D22730" stroke="#26213F" stroke-width="2" stroke-miterlimit="10" stroke-linecap="round" stroke-linejoin="round"/>
<path d="M11.218 18.3355L8.76706 29.6163C4.17047 26.8955 1.56447 23.5741 2.21473 20.5812L4.66211 9.31689C4.34056 10.7969 4.81906 12.3646 5.95252 13.9024C6.45027 14.596 7.08912 15.2687 7.86547 15.9367C8.76704 16.7353 9.84229 17.52 11.0495 18.2473C11.0948 18.2743 11.1691 18.3249 11.218 18.3355Z" fill="#D22730" stroke="#26213F" stroke-width="2" stroke-miterlimit="10" stroke-linecap="round" stroke-linejoin="round"/>
<path d="M45.2713 18.1401C44.9568 19.5872 43.8908 20.8021 42.2576 21.7215C41.5133 22.1626 40.6331 22.5224 39.646 22.8245C38.478 23.1735 37.1741 23.4412 35.7541 23.6149C32.0783 24.0389 27.639 23.8149 22.9621 22.7987C22.5221 22.7031 22.0659 22.604 21.633 22.4755C19.978 22.0815 18.4005 21.5665 16.9314 21.0235L19.0837 19.9929L22.5298 18.348L26.4909 16.4533L31.5743 14.0276L45.393 17.03C45.4285 17.4165 45.3499 17.7783 45.2713 18.1401Z" fill="#D22730" stroke="#26213F" stroke-width="2" stroke-miterlimit="10" stroke-linecap="round" stroke-linejoin="round"/>
<path d="M45.2707 18.1397L42.8198 29.4205C41.7336 34.4195 31.7709 36.5256 20.5106 34.0791C18.3759 33.6153 16.3222 33.0141 14.48 32.3039L16.9309 21.0231C18.4 21.5662 19.9775 22.0811 21.6325 22.4751C22.0653 22.6036 22.5216 22.7028 22.9616 22.7984C27.6384 23.8145 32.0778 24.0385 35.7536 23.6145C37.1735 23.4409 38.4775 23.1731 39.6454 22.8241C40.6326 22.522 41.5128 22.1622 42.2571 21.7212C43.9066 20.8053 44.9563 19.5868 45.2707 18.1397Z" fill="#D22730" stroke="#26213F" stroke-width="2" stroke-miterlimit="10" stroke-linecap="round" stroke-linejoin="round"/>
<path d="M23.8294 12.3623L22.5325 18.3315L19.0827 19.9929L16.9305 21.0235L15.7836 26.3021L8.76302 29.6329L11.2175 18.3357L11.3097 18.3041L18.175 15.06L23.8294 12.3623Z" fill="#D22730" stroke="#26213F" stroke-width="2" stroke-miterlimit="10" stroke-linecap="round" stroke-linejoin="round"/>
<path d="M44.0208 13.5979L43.3706 16.5907L31.5725 14.0274L26.5055 16.4567L22.5316 18.3314L23.8285 12.3621L7.07664 8.72243L7.73047 5.71313L44.0208 13.5979Z" fill="#D22730" stroke="#26213F" stroke-width="2" stroke-miterlimit="10" stroke-linecap="round" stroke-linejoin="round"/>
</svg>
