<svg width="28" height="28" viewBox="0 0 28 28" fill="none" xmlns="http://www.w3.org/2000/svg">
<path d="M17.7255 5.53306C22.4733 10.2809 22.4733 17.9787 17.7255 22.7265L19.6359 24.6369C25.4388 18.834 25.4388 9.42559 19.6359 3.62268L17.7255 5.53306Z" fill="#B4B1B1"/>
<path d="M2.70241 19.4372C1.95636 19.4372 1.35156 18.8324 1.35156 18.0864V9.98131C1.35156 9.23526 1.95636 8.63047 2.70241 8.63047H3.8669C4.23936 8.63047 4.5953 8.47667 4.85058 8.20544L8.47294 4.35668C9.31135 3.46587 10.8075 4.0592 10.8075 5.2825V22.7852C10.8075 24.0085 9.31135 24.6018 8.47294 23.711L4.85058 19.8622C4.5953 19.591 4.23936 19.4372 3.8669 19.4372H2.70241Z" fill="#B4B1B1"/>
<path d="M13.6729 19.1375C16.3106 16.4998 16.3106 12.2233 13.6729 9.5856L15.5833 7.67521C19.2761 11.368 19.2761 17.3551 15.5833 21.0479L13.6729 19.1375Z" fill="#B4B1B1"/>
</svg>
