<svg width="66" height="66" viewBox="0 0 66 66" fill="none" xmlns="http://www.w3.org/2000/svg">
<circle cx="33" cy="33" r="33" fill="#D22730"/>
<path d="M51.7812 30.3906H51.0781V27.5781C51.0781 17.8855 43.1926 10 33.5 10C23.8074 10 15.9219 17.8855 15.9219 27.5781V30.3906H15.2188C12.8925 30.3906 11 32.2832 11 34.6094V40.9375C11 43.2637 12.8925 45.1562 15.2188 45.1562H16.8669C17.4474 46.793 19.0105 47.9688 20.8438 47.9688C23.17 47.9688 25.0625 46.0762 25.0625 43.75V31.7969C25.0625 28.5483 21.5281 26.5252 18.7344 28.1457V27.5781C18.7344 19.4363 25.3582 12.8125 33.5 12.8125C41.6418 12.8125 48.2656 19.4363 48.2656 27.5781V28.1457C45.4792 26.5294 41.9375 28.5418 41.9375 31.7969V43.75C41.9375 46.0762 43.83 47.9688 46.1562 47.9688C47.9895 47.9688 49.5526 46.793 50.1331 45.1562H50.2572C49.5857 49.1417 46.1109 52.1875 41.9376 52.1875H36.3126C36.3126 50.6367 35.0509 49.375 33.5001 49.375C31.9493 49.375 30.6876 50.6367 30.6876 52.1875C30.6876 53.7383 31.9493 55 33.5001 55H41.9376C47.7405 55 52.5309 50.5836 53.1252 44.9355C54.7941 44.3729 56 42.7938 56 40.9375V34.6094C56 32.2832 54.1075 30.3906 51.7812 30.3906ZM13.8125 40.9375V34.6094C13.8125 33.834 14.4434 33.2031 15.2188 33.2031H16.625V42.3438H15.2188C14.4434 42.3438 13.8125 41.7129 13.8125 40.9375ZM20.8438 30.3906C21.6191 30.3906 22.25 31.0215 22.25 31.7969V43.75C22.25 44.5254 21.6191 45.1562 20.8438 45.1562C20.0684 45.1562 19.4375 44.5254 19.4375 43.75V31.7969C19.4375 31.0215 20.0684 30.3906 20.8438 30.3906ZM46.1562 45.1562C45.3809 45.1562 44.75 44.5254 44.75 43.75V31.7969C44.75 31.0215 45.3809 30.3906 46.1562 30.3906C46.9316 30.3906 47.5625 31.0215 47.5625 31.7969V43.75C47.5625 44.5254 46.9316 45.1562 46.1562 45.1562ZM53.1875 40.9375C53.1875 41.7129 52.5566 42.3438 51.7812 42.3438H50.375V33.2031H51.7812C52.5566 33.2031 53.1875 33.834 53.1875 34.6094V40.9375Z" fill="white"/>
</svg>
