<svg width="66" height="63" viewBox="0 0 66 63" fill="none" xmlns="http://www.w3.org/2000/svg">
<path fill-rule="evenodd" clip-rule="evenodd" d="M9.88914 52.609C9.18644 51.3483 9.05254 49.784 9.46206 48.0511L34.2272 39.2181L33.8314 40.6747L30.3258 53.6446C24.0199 55.8428 18.1512 56.6286 14.1109 55.549C12.0231 54.9931 10.6248 53.9589 9.88914 52.609Z" fill="#D22730" stroke="#26213F" stroke-width="2" stroke-miterlimit="10" stroke-linecap="round" stroke-linejoin="round"/>
<path fill-rule="evenodd" clip-rule="evenodd" d="M12.0102 42.6939C12.2374 42.3792 12.4588 42.0543 12.7116 41.7253C14.4609 39.4472 16.8207 37.0303 19.7641 34.6374C21.3388 33.3701 22.992 32.1531 24.7023 31.0386C27.591 29.1195 30.6425 27.4321 33.6988 26.0241C39.1302 23.5207 44.5674 21.9007 49.1429 21.473C51.5936 21.2355 53.803 21.3474 55.633 21.832C57.4815 22.3198 58.7898 23.1623 59.6061 24.2657C62.4475 28.1899 58.9184 35.4903 49.9915 42.7364C46.6274 45.4578 42.8855 47.8927 38.9778 49.9096L44.0157 31.2628L32.1523 35.4974L22.5692 38.9177L16.1908 41.1967L12.0102 42.6939Z" fill="#D22730" stroke="#26213F" stroke-width="2" stroke-miterlimit="10" stroke-linecap="round" stroke-linejoin="round"/>
<path d="M12.0113 42.694L4.11017 28.5185C5.91164 25.9426 8.50563 23.1937 11.864 20.462C23.3705 11.1333 39.4131 5.42913 47.7329 7.65664C50.0842 8.29404 51.581 9.47485 52.2545 11.0743L59.6071 24.2658C58.7909 23.1624 57.4826 22.3198 55.6341 21.8321C53.804 21.3475 51.5947 21.2355 49.144 21.473C44.5685 21.9007 39.1312 23.5208 33.6999 26.0242C30.6436 27.4321 27.5921 29.1195 24.7033 31.0387C22.9931 32.1531 21.3399 33.3701 19.7651 34.6375C16.8217 37.0304 14.462 39.4472 12.7126 41.7254C12.4599 42.0544 12.2384 42.3793 12.0113 42.694Z" fill="#D22730" stroke="#26213F" stroke-width="2" stroke-miterlimit="10" stroke-linecap="round" stroke-linejoin="round"/>
<path d="M38.9784 49.9095L33.8309 40.6745L34.2268 39.2179L32.1529 35.4972L44.0163 31.2627L38.9784 49.9095Z" fill="#D22730" stroke="#26213F" stroke-width="2" stroke-miterlimit="10" stroke-linecap="round" stroke-linejoin="round"/>
<path d="M9.4614 48.051L1.566 33.8858L6.18333 32.2392L12.0106 42.6939L16.1912 41.1966L22.5696 38.9177L32.1527 35.4973L34.2266 39.218L9.4614 48.051Z" fill="#D22730" stroke="#26213F" stroke-width="2" stroke-miterlimit="10" stroke-linecap="round" stroke-linejoin="round"/>
</svg>
