<svg width="83" height="82" viewBox="0 0 83 82" fill="none" xmlns="http://www.w3.org/2000/svg">
<g filter="url(#filter0_d)">
<path d="M41.5 10.1721C29.6243 10.1721 20 19.3285 20 30.6267C20 41.9249 29.6243 51.1348 41.5 51.1348C53.3757 51.1348 63 41.9249 63 30.6802C63 19.382 53.3757 10.1721 41.5 10.1721ZM41.5 49.1536C30.8063 49.1536 22.0825 40.854 22.0825 30.6802C22.0825 20.5065 30.8063 12.1533 41.5 12.1533C52.1937 12.1533 60.9175 20.453 60.9175 30.6802C60.9175 40.9075 52.1937 49.1536 41.5 49.1536ZM42.5694 39.0334C42.5694 39.6224 42.0628 40.1043 41.4437 40.1043C40.8246 40.1043 40.3181 39.6224 40.3181 39.0334C40.3181 38.4444 40.8246 37.9625 41.4437 37.9625C42.0628 37.9625 42.5694 38.4444 42.5694 39.0334ZM40.3743 33.7859V21.7381C40.3743 21.2026 40.8246 20.7742 41.3874 20.7742C41.9503 20.7742 42.4005 21.2026 42.4005 21.7381V33.7859C42.4005 34.3214 41.9503 34.7497 41.3874 34.7497C40.8246 34.8033 40.3743 34.3214 40.3743 33.7859Z" fill="#D22730"/>
<path d="M41.3874 34.2497H41.3637L41.3401 34.252C41.1108 34.2738 40.8743 34.0683 40.8743 33.7859V21.7381C40.8743 21.5019 41.077 21.2742 41.3874 21.2742C41.6979 21.2742 41.9005 21.5019 41.9005 21.7381V33.7859C41.9005 34.022 41.6979 34.2497 41.3874 34.2497ZM20.5 30.6267C20.5 19.6278 29.8767 10.6721 41.5 10.6721C53.1216 10.6721 62.5 19.6797 62.5 30.6802C62.5 41.6264 53.1224 50.6348 41.5 50.6348C29.8785 50.6348 20.5 41.6272 20.5 30.6267ZM21.5825 30.6802C21.5825 41.1533 30.5539 49.6536 41.5 49.6536C52.4451 49.6536 61.4175 41.2078 61.4175 30.6802C61.4175 20.1545 52.447 11.6533 41.5 11.6533C30.552 11.6533 21.5825 20.209 21.5825 30.6802ZM42.0694 39.0334C42.0694 39.3231 41.8105 39.6043 41.4437 39.6043C41.077 39.6043 40.8181 39.3231 40.8181 39.0334C40.8181 38.7438 41.077 38.4625 41.4437 38.4625C41.8105 38.4625 42.0694 38.7438 42.0694 39.0334Z" stroke="#D22730"/>
</g>
<defs>
<filter id="filter0_d" x="0" y="0.172119" width="83" height="80.9627" filterUnits="userSpaceOnUse" color-interpolation-filters="sRGB">
<feFlood flood-opacity="0" result="BackgroundImageFix"/>
<feColorMatrix in="SourceAlpha" type="matrix" values="0 0 0 0 0 0 0 0 0 0 0 0 0 0 0 0 0 0 127 0"/>
<feOffset dy="10"/>
<feGaussianBlur stdDeviation="10"/>
<feColorMatrix type="matrix" values="0 0 0 0 0.507917 0 0 0 0 0.560475 0 0 0 0 0.6625 0 0 0 0.3 0"/>
<feBlend mode="darken" in2="BackgroundImageFix" result="effect1_dropShadow"/>
<feBlend mode="normal" in="SourceGraphic" in2="effect1_dropShadow" result="shape"/>
</filter>
</defs>
</svg>
