<svg width="66" height="66" viewBox="0 0 66 66" fill="none" xmlns="http://www.w3.org/2000/svg">
<circle cx="33" cy="33" r="33" fill="#D22730"/>
<mask id="path-2-outside-1" maskUnits="userSpaceOnUse" x="10.8145" y="10.8148" width="45" height="45" fill="black">
<rect fill="white" x="10.8145" y="10.8148" width="45" height="45"/>
<path d="M54.1848 33C54.1848 44.7003 44.6999 54.1852 32.9996 54.1852C21.2994 54.1852 11.8145 44.7003 11.8145 33C11.8145 21.2997 21.2994 11.8148 32.9996 11.8148C44.6999 11.8148 54.1848 21.2997 54.1848 33ZM14.9922 33C14.9922 42.9452 23.0544 51.0074 32.9996 51.0074C42.9449 51.0074 51.007 42.9452 51.007 33C51.007 23.0548 42.9449 14.9926 32.9996 14.9926C23.0544 14.9926 14.9922 23.0548 14.9922 33Z"/>
</mask>
<path d="M54.1848 33C54.1848 44.7003 44.6999 54.1852 32.9996 54.1852C21.2994 54.1852 11.8145 44.7003 11.8145 33C11.8145 21.2997 21.2994 11.8148 32.9996 11.8148C44.6999 11.8148 54.1848 21.2997 54.1848 33ZM14.9922 33C14.9922 42.9452 23.0544 51.0074 32.9996 51.0074C42.9449 51.0074 51.007 42.9452 51.007 33C51.007 23.0548 42.9449 14.9926 32.9996 14.9926C23.0544 14.9926 14.9922 23.0548 14.9922 33Z" fill="white"/>
<path d="M54.1848 33C54.1848 44.7003 44.6999 54.1852 32.9996 54.1852C21.2994 54.1852 11.8145 44.7003 11.8145 33C11.8145 21.2997 21.2994 11.8148 32.9996 11.8148C44.6999 11.8148 54.1848 21.2997 54.1848 33ZM14.9922 33C14.9922 42.9452 23.0544 51.0074 32.9996 51.0074C42.9449 51.0074 51.007 42.9452 51.007 33C51.007 23.0548 42.9449 14.9926 32.9996 14.9926C23.0544 14.9926 14.9922 23.0548 14.9922 33Z" stroke="white" stroke-width="1.3" mask="url(#path-2-outside-1)"/>
<rect x="22.8977" y="31.0454" width="20.2056" height="3.90926" rx="1.95463" fill="white" stroke="white" stroke-width="0.65"/>
<rect x="31.0461" y="43.1027" width="20.2056" height="3.90926" rx="1.95463" transform="rotate(-90 31.0461 43.1027)" fill="white" stroke="white" stroke-width="0.65"/>
</svg>
