<svg width="66" height="66" viewBox="0 0 66 66" fill="none" xmlns="http://www.w3.org/2000/svg">
<circle cx="33" cy="33" r="33" fill="#D22730"/>
<path fill-rule="evenodd" clip-rule="evenodd" d="M33.0282 12.5555C25.0598 12.5555 18.1384 17.0923 14.7649 23.7811H51.2915C47.8599 17.0923 40.9966 12.5555 33.0282 12.5555ZM12.671 30.5862C12.6129 31.3423 12.5547 32.1566 12.5547 32.9709C12.5547 39.7179 15.7537 45.6505 20.7557 49.373L31.6323 30.5862H12.671ZM26.8047 52.4557L39.4262 30.528H53.3272C53.4436 31.3423 53.4436 32.1566 53.4436 32.9709C53.4436 44.2546 44.3119 53.4444 32.97 53.4444C30.818 53.4444 28.7241 53.0955 26.8047 52.4557Z" stroke="white" stroke-width="4" stroke-linecap="round" stroke-linejoin="round"/>
</svg>
