<svg width="77" height="65" viewBox="0 0 77 65" fill="none" xmlns="http://www.w3.org/2000/svg">
<path fill-rule="evenodd" clip-rule="evenodd" d="M71.3668 39.6921C70.67 41.1308 69.3363 42.2466 67.5044 42.9766L43.7517 26.1301L45.3243 25.5633L59.3158 20.4987C65.3178 24.8206 69.7608 29.6438 71.3497 33.9945C72.1726 36.2413 72.1234 38.1669 71.3668 39.6921Z" fill="#D22730" stroke="#26213F" stroke-width="2" stroke-miterlimit="10" stroke-linecap="round" stroke-linejoin="round"/>
<path fill-rule="evenodd" clip-rule="evenodd" d="M61.0258 44.0697C60.596 44.0637 60.1605 44.0694 59.7015 44.0492C56.5234 43.9107 52.8315 43.3068 48.7903 42.1582C46.6399 41.5355 44.4853 40.8097 42.3874 39.967C38.8107 38.5669 35.3407 36.8718 32.121 34.9949C26.3982 31.6601 21.4728 27.7585 18.1766 23.8805C16.4034 21.8088 15.1006 19.7339 14.3769 17.7661C13.6443 15.7795 13.5769 14.0574 14.0588 12.6157C15.8118 7.54432 24.6762 6.10474 36.9222 9.59524C41.5288 10.9165 46.1156 12.7625 50.4287 15.0247L30.3145 22.308L41.6959 30.376L50.8894 36.8934L57.0105 41.2297L61.0258 44.0697Z" fill="#D22730" stroke="#26213F" stroke-width="2" stroke-miterlimit="10" stroke-linecap="round" stroke-linejoin="round"/>
<path d="M61.0256 44.0697L53.1913 60.246C49.71 60.2495 45.568 59.6441 40.9557 58.3346C25.1812 53.8283 9.81049 42.9041 6.54241 33.9424C5.62595 31.4048 5.74548 29.2967 6.76805 27.6692L14.0586 12.6157C13.5767 14.0574 13.6441 15.7796 14.3768 17.7661C15.1005 19.7339 16.4033 21.8088 18.1764 23.8806C21.4726 27.7585 26.398 31.6601 32.1208 34.9949C35.3405 36.8719 38.8105 38.5669 42.3873 39.967C44.4852 40.8098 46.6397 41.5355 48.7901 42.1582C52.8313 43.3068 56.5232 43.9107 59.7014 44.0493C60.1604 44.0694 60.5958 44.0637 61.0256 44.0697Z" fill="#D22730" stroke="#26213F" stroke-width="2" stroke-miterlimit="10" stroke-linecap="round" stroke-linejoin="round"/>
<path d="M71.3655 39.6919L63.5424 55.8449C62.8457 57.2835 61.512 58.3993 59.6744 59.1411L67.5031 42.9764C69.335 42.2464 70.6687 41.1306 71.3655 39.6919Z" fill="#D22730" stroke="#26213F" stroke-width="2" stroke-miterlimit="10" stroke-linecap="round" stroke-linejoin="round"/>
<path d="M50.4276 15.0247L45.3237 25.5633L43.7511 26.1302L41.6948 30.376L30.3134 22.3081L50.4276 15.0247Z" fill="#D22730" stroke="#26213F" stroke-width="2" stroke-miterlimit="10" stroke-linecap="round" stroke-linejoin="round"/>
<path d="M67.5046 42.9766L59.6759 59.1412L55.2476 56.0002L61.0256 44.0697L57.0103 41.2297L50.8891 36.8934L41.6956 30.376L43.752 26.1301L67.5046 42.9766Z" fill="#D22730" stroke="#26213F" stroke-width="2" stroke-miterlimit="10" stroke-linecap="round" stroke-linejoin="round"/>
</svg>
