<svg width="66" height="66" viewBox="0 0 66 66" fill="none" xmlns="http://www.w3.org/2000/svg">
<circle cx="33" cy="33" r="33" fill="#D22730"/>
<path d="M50.25 14.625H15.75C12.4413 14.625 9.75 17.3163 9.75 20.625V44.3438C9.75 47.6524 12.4413 50.3438 15.75 50.3438H25.5462C25.4233 51.277 24.6224 52 23.6562 52H22.2188C21.2868 52 20.5312 52.7555 20.5312 53.6875C20.5312 54.6195 21.2868 55.375 22.2188 55.375H43.7812C44.7132 55.375 45.4688 54.6195 45.4688 53.6875C45.4688 52.7555 44.7132 52 43.7812 52H42.3438C41.3776 52 40.5767 51.277 40.4538 50.3438H50.25C53.5587 50.3438 56.25 47.6524 56.25 44.3438V20.625C56.25 17.3163 53.5587 14.625 50.25 14.625ZM37.0683 50.3438C37.0956 50.9249 37.2173 51.4821 37.4184 52H28.5816C28.7827 51.4821 28.9044 50.9249 28.9317 50.3438H37.0683ZM52.875 44.3438C52.875 45.791 51.6972 46.9688 50.25 46.9688H50.2408H50.2309H50.2204H50.2091H50.1972H50.1845H50.1712H50.1572H50.1426H50.1272H50.1112H50.0945H50.0772H50.0592H50.0405H50.0212H50.0012H49.9805H49.9593H49.9373H49.9147H49.8915H49.8677H49.8432H49.818H49.7923H49.7659H49.7389H49.7113H49.683H49.6542H49.6247H49.5946H49.5639H49.5326H49.5007H49.4682H49.4351H49.4014H49.3671H49.3322H49.2968H49.2607H49.2241H49.1869H49.1491H49.1107H49.0718H49.0323H48.9923H48.9517H48.9105H48.8688H48.8265H48.7837H48.7403H48.6964H48.6519H48.6069H48.5614H48.5153H48.4687H48.4216H48.3739H48.3257H48.277H48.2278H48.1781H48.1278H48.0771H48.0258H47.9741H47.9218H47.869H47.8158H47.762H47.7078H47.6531H47.5979H47.5422H47.486H47.4294H47.3723H47.3147H47.2566H47.1981H47.1391H47.0797H47.0198H46.9594H46.8986H46.8374H46.7757H46.7136H46.651H46.588H46.5245H46.4606H46.3963H46.3316H46.2664H46.2008H46.1348H46.0684H46.0016H45.9344H45.8667H45.7987H45.7302H45.6614H45.5922H45.5225H45.4525H45.3821H45.3113H45.2401H45.1685H45.0966H45.0243H44.9516H44.8786H44.8051H44.7314H44.6572H44.5827H44.5079H44.4327H44.3571H44.2812H44.205H44.1284H44.0515H43.9742H43.8967H43.8187H43.7405H43.6619H43.583H43.5038H43.4243H43.3445H43.2643H43.1839H43.1031H43.022H42.9407H42.859H42.7771H42.6948H42.6123H42.5295H42.4464H42.363H42.2793H42.1954H42.1112H42.0267H41.942H41.857H41.7717H41.6862H41.6004H41.5144H41.4281H41.3416H41.2548H41.1678H41.0805H40.993H40.9053H40.8174H40.7292H40.6408H40.5522H40.4633H40.3742H40.285H40.1955H40.1058H40.0159H39.9258H39.8355H39.745H39.6543H39.5634H39.4723H39.381H39.2896H39.1979H39.1061H39.0141H38.922H38.8297H38.7372H38.6445H38.5517H38.4587H38.3656H38.2723H38.1788H38.0852H37.9915H37.8976H37.8036H37.7095H37.6152H37.5208H37.4262H37.3315H37.2367H37.1418H37.0468H36.9516H36.8564H36.761H36.6655H36.57H36.4743H36.3785H36.2826H36.1867H36.0906H35.9944H35.8982H35.8019H35.7055H35.609H35.5125H35.4159H35.3192H35.2225H35.1257H35.0288H34.9319H34.8349H34.7379H34.6408H34.5437H34.4465H34.3493H34.252H34.1548H34.0574H33.9601H33.8627H33.7653H33.6679H33.5705H33.4731H33.3756H33.2781H33.1806H33.0832H32.9857H32.8882H32.7907H32.6932H32.5958H32.4983H32.4009H32.3035H32.2061H32.1087H32.0113H31.914H31.8167H31.7195H31.6222H31.525H31.4279H31.3308H31.2338H31.1368H31.0398H30.9429H30.8461H30.7493H30.6526H30.556H30.4594H30.3629H30.2665H30.1702H30.0739H29.9777H29.8817H29.7857H29.6897H29.5939H29.4982H29.4026H29.3071H29.2117H29.1164H29.0212H28.9261H28.8311H28.7363H28.6416H28.547H28.4525H28.3582H28.264H28.1699H28.076H27.9822H27.8886H27.7951H27.7017H27.6085H27.5155H27.4226H27.3299H27.2373H27.145H27.0527H26.9607H26.8688H26.7771H26.6856H26.5943H26.5031H26.4122H26.3214H26.2308H26.1404H26.0503H25.9603H25.8705H25.7809H25.6916H25.6024H25.5135H25.4248H25.3363H25.2481H25.16H25.0722H24.9846H24.8973H24.8102H24.7233H24.6367H24.5503H24.4642H24.3784H24.2927H24.2074H24.1223H24.0374H23.9529H23.8686H23.7845H23.7008H23.6173H23.5341H23.4512H23.3685H23.2862H23.2041H23.1224H23.0409H22.9597H22.8788H22.7983H22.718H22.6381H22.5584H22.4791H22.4001H22.3214H22.2431H22.165H22.0873H22.0099H21.9329H21.8562H21.7798H21.7038H21.6281H21.5528H21.4778H21.4032H21.3289H21.255H21.1815H21.1083H21.0355H20.963H20.891H20.8193H20.7479H20.677H20.6064H20.5363H20.4665H20.3971H20.3281H20.2595H20.1913H20.1236H20.0562H19.9892H19.9226H19.8565H19.7908H19.7254H19.6605H19.5961H19.532H19.4684H19.4053H19.3425H19.2802H19.2184H19.157H19.096H19.0355H18.9754H18.9158H18.8567H18.798H18.7398H18.682H18.6247H18.5679H18.5116H18.4557H18.4003H18.3454H18.291H18.2371H18.1836H18.1307H18.0783H18.0263H17.9749H17.9239H17.8735H17.8236H17.7742H17.7253H17.6769H17.6291H17.5818H17.535H17.4887H17.443H17.3978H17.3531H17.309H17.2654H17.2224H17.1799H17.138H17.0966H17.0558H17.0155H16.9758H16.9367H16.8982H16.8602H16.8228H16.7859H16.7497H16.714H16.6789H16.6444H16.6105H16.5772H16.5444H16.5123H16.4808H16.4499H16.4196H16.3899H16.3608H16.3323H16.3045H16.2772H16.2506H16.2246H16.1993H16.1745H16.1505H16.127H16.1042H16.082H16.0605H16.0396H16.0194H15.9998H15.9809H15.9627H15.9451H15.9281H15.9119H15.8963H15.8814H15.8671H15.8536H15.8407H15.8285H15.817H15.8062H15.7961H15.7866H15.7779H15.7699H15.7625H15.7559H15.75C14.3028 46.9688 13.125 45.791 13.125 44.3438V20.625C13.125 19.1778 14.3028 18 15.75 18H50.25C51.6972 18 52.875 19.1778 52.875 20.625V44.3438Z" fill="white" stroke="white" stroke-width="0.5"/>
<path d="M21.6495 31.2889L24.2319 31.2889L24.2319 38.2584C24.2319 39.1845 24.9827 39.9352 25.9088 39.9352C26.8349 39.9352 27.5856 39.1845 27.5856 38.2584L27.5856 31.2889L29.8699 31.2889C30.796 31.2889 31.5467 30.5381 31.5467 29.612C31.5467 28.6859 30.796 27.9352 29.8699 27.9352L21.6495 27.9352C20.7234 27.9352 19.9727 28.6859 19.9727 29.612C19.9727 30.5381 20.7234 31.2889 21.6495 31.2889Z" fill="white" stroke="white" stroke-width="0.5"/>
<path d="M42.9575 28.7738L39.4166 34.9068L35.8793 28.78C35.4162 27.978 34.3907 27.7032 33.5887 28.1662C32.7866 28.6293 32.5118 29.6548 32.9749 30.4569L37.9369 39.0514C38.2853 39.6548 38.9521 39.9597 39.6025 39.8766C40.1253 39.8277 40.6173 39.5346 40.8998 39.0452L45.8619 30.4507C46.3249 29.6487 46.0501 28.6231 45.2481 28.1601C44.4461 27.697 43.4205 27.9718 42.9575 28.7738Z" fill="white" stroke="white" stroke-width="0.5"/>
</svg>
