<svg width="40" height="40" viewBox="0 0 40 40" fill="none" xmlns="http://www.w3.org/2000/svg">
<path d="M20 40C31.0457 40 40 31.0457 40 20C40 8.9543 31.0457 0 20 0C8.9543 0 0 8.9543 0 20C0 31.0457 8.9543 40 20 40Z" fill="#D22730"/>
<path d="M24.6277 8.55212H15.3734C11.6124 8.55212 8.55273 11.6118 8.55273 15.3727V24.627C8.55273 28.3878 11.6124 31.4478 15.3734 31.4478H24.6277C28.3885 31.4478 31.4484 28.388 31.4484 24.627V15.3727C31.4484 11.6118 28.3886 8.55212 24.6277 8.55212ZM29.1451 24.6271C29.1451 27.122 27.1226 29.1445 24.6277 29.1445H15.3734C12.8786 29.1445 10.8561 27.122 10.8561 24.6271V15.3728C10.8561 12.878 12.8786 10.8554 15.3734 10.8554H24.6277C27.1226 10.8554 29.1451 12.8781 29.1451 15.3728V24.6271Z" fill="white"/>
<path d="M19.9998 14.0774C16.7347 14.0774 14.0781 16.734 14.0781 19.9991C14.0781 23.264 16.7347 25.9206 19.9998 25.9206C23.265 25.9206 25.9213 23.2643 25.9213 19.9991C25.9213 16.734 23.265 14.0774 19.9998 14.0774ZM19.9998 23.6173C18.0015 23.6173 16.3814 21.9976 16.3814 19.9991C16.3814 18.0007 18.0015 16.3807 19.9998 16.3807C21.9982 16.3807 23.618 18.0006 23.618 19.9991C23.618 21.9975 21.9982 23.6173 19.9998 23.6173Z" fill="white"/>
</svg>
