<svg width="79" height="21" viewBox="0 0 79 21" fill="none" xmlns="http://www.w3.org/2000/svg">
<path fill-rule="evenodd" clip-rule="evenodd" d="M69.1041 0.281982C63.65 0.281982 59.208 4.70983 59.208 10.2094C59.208 15.6807 63.6219 20.1368 69.1041 20.1368C70.7066 20.1368 72.2247 19.7419 73.5742 19.0651L64.7464 10.2094L73.5742 1.35369C72.2247 0.648619 70.7066 0.281982 69.1041 0.281982ZM76.245 17.0627L69.4133 10.2094L76.245 3.35609C77.96 5.13287 79.0002 7.55832 79.0002 10.2094C79.0002 12.8604 77.9319 15.2859 76.245 17.0627Z" fill="#D7282F"/>
<path fill-rule="evenodd" clip-rule="evenodd" d="M39.4998 0C35.6482 0 32.3027 2.19982 30.672 5.44315H48.3276C46.6688 2.19982 43.3514 0 39.4998 0ZM29.6881 8.74288C29.6318 9.13772 29.6318 9.53256 29.6318 9.9274C29.6318 13.1707 31.1781 16.0474 33.5959 17.8524L38.797 8.74288H29.6881ZM36.4916 19.3471L42.5923 8.71468H49.3115C49.3678 9.10952 49.3678 9.50436 49.3678 9.8992C49.3678 15.3705 44.9539 19.8266 39.4717 19.8266C38.4315 19.8266 37.4194 19.6574 36.4916 19.3471Z" fill="#D7282F"/>
<path fill-rule="evenodd" clip-rule="evenodd" d="M9.89608 0C6.04448 0 2.69893 2.19982 1.06833 5.44315H18.7238C17.0651 2.19982 13.7477 0 9.89608 0ZM0.0562278 8.74288C0.0281139 9.10952 0 9.50436 0 9.8992C0 13.1707 1.54626 16.0474 3.96406 17.8524L9.22135 8.74288H0.0562278ZM6.8879 19.3471L12.9886 8.71468H19.7078C19.7641 9.10952 19.7641 9.50436 19.7641 9.8992C19.7641 15.3705 15.3502 19.8266 9.86797 19.8266C8.82776 19.8266 7.81566 19.6574 6.8879 19.3471Z" fill="#D7282F"/>
</svg>
