<svg width="18" height="18" viewBox="0 0 18 18" fill="none" xmlns="http://www.w3.org/2000/svg">
<g clip-path="url(#clip0)">
<path d="M6.08475 8.30969H0.75C0.336 8.30969 0 8.64569 0 9.05969C0 9.47369 0.336 9.80969 0.75 9.80969H6.08475C6.49875 9.80969 6.83475 9.47369 6.83475 9.05969C6.83475 8.64569 6.49875 8.30969 6.08475 8.30969Z" fill="#D22730"/>
<path d="M6.08492 10.6747H1.9873C1.5733 10.6747 1.2373 11.0107 1.2373 11.4247C1.2373 11.8387 1.5733 12.1747 1.9873 12.1747H6.08492C6.49892 12.1747 6.83492 11.8391 6.83492 11.4247C6.83492 11.0107 6.49892 10.6747 6.08492 10.6747Z" fill="#D22730"/>
<path d="M17.9697 3.92625C17.9678 3.91913 17.9689 3.912 17.9667 3.90488C17.9644 3.89738 17.9592 3.89213 17.9569 3.88463C17.9341 3.81713 17.9041 3.753 17.8636 3.696C17.8583 3.6885 17.8519 3.6825 17.8463 3.675C17.8077 3.62363 17.7623 3.57825 17.7121 3.5385C17.7027 3.53137 17.6948 3.52312 17.6851 3.51637C17.6299 3.47662 17.5688 3.44588 17.5039 3.42225C17.4904 3.41738 17.4769 3.41363 17.4631 3.4095C17.3952 3.38925 17.3243 3.375 17.2497 3.375H4.06092C3.9863 3.375 3.91542 3.38925 3.84717 3.4095C3.8333 3.41363 3.8198 3.41738 3.8063 3.42225C3.74142 3.44588 3.6803 3.477 3.62517 3.51637C3.6158 3.52312 3.60755 3.53137 3.59817 3.5385C3.54792 3.57825 3.50255 3.62363 3.46392 3.675C3.4583 3.68213 3.45192 3.6885 3.44667 3.696C3.40655 3.75337 3.37655 3.81713 3.3533 3.88463C3.35067 3.89175 3.34542 3.89738 3.34355 3.90488C3.3413 3.912 3.34242 3.91913 3.34055 3.92625C3.32292 3.99 3.31055 4.05563 3.31055 4.125V6.579C3.31055 6.993 3.64655 7.329 4.06055 7.329C4.47455 7.329 4.81055 6.993 4.81055 6.579V5.53912L10.2346 9.2145C10.3617 9.30037 10.5083 9.3435 10.6553 9.3435C10.8023 9.3435 10.9489 9.30037 11.0761 9.2145L16.4997 5.5395V13.125H4.06092C3.64692 13.125 3.31092 13.461 3.31092 13.875C3.31092 14.289 3.64692 14.625 4.06092 14.625H17.2497C17.6637 14.625 17.9997 14.289 17.9997 13.875V4.125C17.9997 4.05563 17.9873 3.99 17.9697 3.92625ZM10.6557 7.6875L6.5048 4.875H14.8062L10.6557 7.6875Z" fill="#D22730"/>
</g>
<defs>
<clipPath id="clip0">
<rect width="18" height="18" fill="white"/>
</clipPath>
</defs>
</svg>
