<svg width="67" height="56" viewBox="0 0 67 56" fill="none" xmlns="http://www.w3.org/2000/svg">
<path fill-rule="evenodd" clip-rule="evenodd" d="M51.6924 7.12658L2.66642 24.2423C5.80536 18.6604 14.1415 12.6846 24.8185 8.95709C35.5317 5.19201 45.6954 4.73413 51.6924 7.12658Z" fill="#D22730" stroke="#26213F" stroke-width="2" stroke-miterlimit="10" stroke-linecap="round" stroke-linejoin="round"/>
<path fill-rule="evenodd" clip-rule="evenodd" d="M26.7155 20.407L21.9455 27.7547L16.1531 36.6307L16.0741 36.758C15.9783 36.7665 15.8747 36.7528 15.7789 36.7613C13.8006 36.7541 11.9311 36.6342 10.2947 36.3332C8.88105 36.104 7.62797 35.7688 6.52773 35.3056C4.05281 34.3004 2.33689 32.781 1.63888 30.7816C1.46826 30.2929 1.36368 29.7811 1.28887 29.2838L26.7155 20.407Z" fill="#D22730" stroke="#26213F" stroke-width="2" stroke-miterlimit="10" stroke-linecap="round" stroke-linejoin="round"/>
<path d="M16.0441 36.743L21.3645 51.9827C13.8965 52.0976 8.36283 50.0418 6.9513 45.9986L1.63867 30.7812C2.33668 32.7806 4.0526 34.3 6.52751 35.3052C7.62775 35.7684 8.88084 36.1036 10.2945 36.3328C11.9529 36.6261 13.8081 36.776 15.7787 36.7609C15.8525 36.7601 15.9781 36.7661 16.0441 36.743Z" fill="#D22730" stroke="#26213F" stroke-width="2" stroke-miterlimit="10" stroke-linecap="round" stroke-linejoin="round"/>
<path d="M56.4996 11.6294C57.1821 13.5843 56.7989 15.8116 55.5236 18.1011C54.9585 19.1707 54.172 20.2428 53.2159 21.3243C52.0784 22.5937 50.7195 23.8656 49.1535 25.1102C45.0812 28.3014 39.6249 31.278 33.3067 33.4837C32.7123 33.6913 32.0959 33.9064 31.486 34.0695C29.2251 34.809 26.9681 35.3477 24.8199 35.7737L26.6328 32.9725L29.5394 28.4935L32.8775 23.3405L37.1654 16.7343L55.8336 10.217C56.1583 10.6519 56.3289 11.1406 56.4996 11.6294Z" fill="#D22730" stroke="#26213F" stroke-width="2" stroke-miterlimit="10" stroke-linecap="round" stroke-linejoin="round"/>
<path d="M56.4975 11.629L61.8178 26.8686C64.1756 33.622 53.8369 43.4122 38.625 48.723C35.7411 49.7298 32.8535 50.5136 30.1382 51.0129L24.8178 35.7733C26.966 35.3474 29.223 34.8086 31.4839 34.0691C32.0938 33.9061 32.7102 33.6909 33.3046 33.4834C39.6228 31.2776 45.079 28.301 49.1514 25.1098C50.7174 23.8652 52.0763 22.5933 53.2138 21.3239C54.1699 20.2424 54.9564 19.1703 55.5215 18.1007C56.8188 15.8036 57.1799 13.5839 56.4975 11.629Z" fill="#D22730" stroke="#26213F" stroke-width="2" stroke-miterlimit="10" stroke-linecap="round" stroke-linejoin="round"/>
<path d="M26.7166 20.4067L29.5319 28.4708L26.6331 32.972L24.8202 35.7732L27.3098 42.9043L21.3736 52.0049L16.0455 36.7431L16.1323 36.638L21.9467 27.7543L26.7166 20.4067Z" fill="#D22730" stroke="#26213F" stroke-width="2" stroke-miterlimit="10" stroke-linecap="round" stroke-linejoin="round"/>
<path d="M51.6921 7.12644L53.1036 11.1696L37.1652 16.734L32.8993 23.3324L29.5314 28.4709L26.7161 20.4068L4.0853 28.3076L2.66602 24.2422L51.6921 7.12644Z" fill="#D22730" stroke="#26213F" stroke-width="2" stroke-miterlimit="10" stroke-linecap="round" stroke-linejoin="round"/>
</svg>
