<svg width="18" height="18" viewBox="0 0 18 18" fill="none" xmlns="http://www.w3.org/2000/svg">
<path d="M16.1648 11.9208L14.5545 10.6016C13.5055 9.74214 11.877 9.82347 10.92 10.7805L10.856 10.8444C10.6956 11.0049 10.4342 11.0036 10.2759 10.8453L7.16476 7.73416C7.0077 7.5771 7.00459 7.32448 7.15594 7.16408C7.1587 7.16117 7.1615 7.15829 7.16434 7.15541L7.15579 7.16396C7.15863 7.16113 7.16146 7.15825 7.1643 7.15541C8.11604 6.19455 8.20711 4.55856 7.3734 3.50452L6.06738 1.85339C5.22792 0.792054 3.76894 0.710071 2.81202 1.66699L2.57213 1.90688C0.87246 3.60655 0.471939 6.66999 1.74686 8.7068C1.74686 8.7068 2.49736 10.4473 5.03009 12.9801C7.56283 15.5128 9.30334 16.2633 9.30334 16.2633C11.3592 17.5072 14.4026 17.1387 16.1018 15.4394L16.3303 15.211C17.288 14.2533 17.2131 12.7797 16.1648 11.9208ZM15.1734 14.0541L14.9449 14.2825C13.7783 15.4492 11.5621 15.7177 10.1502 14.8635L10.0542 14.8053L9.95111 14.7609C9.82457 14.7063 9.50738 14.5344 9.02783 14.2127C8.17613 13.6414 7.21971 12.856 6.18695 11.8232C5.15418 10.7904 4.36867 9.83402 3.79743 8.98232C3.47579 8.50277 3.30377 8.18557 3.24924 8.05903L3.19985 7.94449L3.13367 7.83877C2.2753 6.46745 2.55204 4.24079 3.72902 3.06381L3.96891 2.82392C4.23492 2.55791 4.55296 2.57601 4.78426 2.86844L6.09028 4.51957C6.4123 4.92668 6.37062 5.63546 5.99897 6.00715C5.20836 6.807 5.21227 8.09553 6.00791 8.89113L9.11909 12.0023C9.91664 12.7999 11.214 12.8003 12.013 12.0014L12.0769 11.9374C12.4397 11.5747 13.1196 11.5411 13.5177 11.8673L15.128 13.1865C15.4286 13.4328 15.4462 13.7813 15.1734 14.0541Z" fill="#D22730"/>
</svg>
