<svg width="66" height="66" viewBox="0 0 66 66" fill="none" xmlns="http://www.w3.org/2000/svg">
<circle cx="33" cy="33" r="33" fill="#D22730"/>
<mask id="path-2-outside-1" maskUnits="userSpaceOnUse" x="9.87109" y="8.87036" width="48" height="48" fill="black">
<rect fill="white" x="9.87109" y="8.87036" width="48" height="48"/>
<path d="M56.1304 32.5C56.1304 44.998 45.9987 55.1296 33.5007 55.1296C21.0027 55.1296 10.8711 44.998 10.8711 32.5C10.8711 20.002 21.0027 9.87036 33.5007 9.87036C45.9987 9.87036 56.1304 20.002 56.1304 32.5ZM14.2655 32.5C14.2655 43.1233 22.8774 51.7352 33.5007 51.7352C44.124 51.7352 52.7359 43.1233 52.7359 32.5C52.7359 21.8767 44.124 13.2648 33.5007 13.2648C22.8774 13.2648 14.2655 21.8767 14.2655 32.5Z"/>
</mask>
<path d="M56.1304 32.5C56.1304 44.998 45.9987 55.1296 33.5007 55.1296C21.0027 55.1296 10.8711 44.998 10.8711 32.5C10.8711 20.002 21.0027 9.87036 33.5007 9.87036C45.9987 9.87036 56.1304 20.002 56.1304 32.5ZM14.2655 32.5C14.2655 43.1233 22.8774 51.7352 33.5007 51.7352C44.124 51.7352 52.7359 43.1233 52.7359 32.5C52.7359 21.8767 44.124 13.2648 33.5007 13.2648C22.8774 13.2648 14.2655 21.8767 14.2655 32.5Z" fill="white"/>
<path d="M56.1304 32.5C56.1304 44.998 45.9987 55.1296 33.5007 55.1296C21.0027 55.1296 10.8711 44.998 10.8711 32.5C10.8711 20.002 21.0027 9.87036 33.5007 9.87036C45.9987 9.87036 56.1304 20.002 56.1304 32.5ZM14.2655 32.5C14.2655 43.1233 22.8774 51.7352 33.5007 51.7352C44.124 51.7352 52.7359 43.1233 52.7359 32.5C52.7359 21.8767 44.124 13.2648 33.5007 13.2648C22.8774 13.2648 14.2655 21.8767 14.2655 32.5Z" stroke="white" stroke-width="2" mask="url(#path-2-outside-1)"/>
<path d="M35.7619 34.9402V37.7118C35.7619 38.8518 34.7494 39.7758 33.5 39.7758C32.2507 39.7758 31.2381 38.8518 31.2381 37.7118V34.737C31.2381 32.9028 32.6169 31.3459 34.5912 30.9504C36.9313 30.482 38.5633 28.5755 38.4727 26.418C38.3751 24.1028 36.2775 22.2201 33.6971 22.1314C32.301 22.0843 30.9903 22.5354 30.0033 23.4025C29.0491 24.241 28.5238 25.3646 28.5238 26.5659C28.5238 27.706 27.5113 28.63 26.2619 28.63C25.0126 28.63 24 27.706 24 26.5659C24 24.2326 25.0174 22.0532 26.8654 20.429C28.7456 18.7765 31.2328 17.9154 33.8667 18.0066C38.7965 18.1751 42.8052 21.8005 42.993 26.2591C43.1657 30.3538 40.1355 33.9747 35.7619 34.9402ZM31.2381 44.9359C31.2381 46.076 32.2507 47 33.5 47C34.7494 47 35.7619 46.076 35.7619 44.9359C35.7619 43.7959 34.7494 42.8719 33.5 42.8719C32.2507 42.8719 31.2381 43.7959 31.2381 44.9359Z" fill="white"/>
<path d="M35.7619 34.9402V37.7118C35.7619 38.8518 34.7494 39.7758 33.5 39.7758C32.2507 39.7758 31.2381 38.8518 31.2381 37.7118V34.737C31.2381 32.9028 32.6169 31.3459 34.5912 30.9504C36.9313 30.482 38.5633 28.5755 38.4727 26.418C38.3751 24.1028 36.2775 22.2201 33.6971 22.1314C32.301 22.0843 30.9903 22.5354 30.0033 23.4025C29.0491 24.241 28.5238 25.3646 28.5238 26.5659C28.5238 27.706 27.5113 28.63 26.2619 28.63C25.0126 28.63 24 27.706 24 26.5659C24 24.2326 25.0174 22.0532 26.8654 20.429C28.7456 18.7765 31.2328 17.9154 33.8667 18.0066C38.7965 18.1751 42.8052 21.8005 42.993 26.2591C43.1657 30.3538 40.1355 33.9747 35.7619 34.9402ZM31.2381 44.9359C31.2381 46.076 32.2507 47 33.5 47C34.7494 47 35.7619 46.076 35.7619 44.9359C35.7619 43.7959 34.7494 42.8719 33.5 42.8719C32.2507 42.8719 31.2381 43.7959 31.2381 44.9359Z" stroke="white"/>
</svg>
