<svg width="66" height="66" viewBox="0 0 66 66" fill="none" xmlns="http://www.w3.org/2000/svg">
<circle cx="33" cy="33" r="33" fill="#D22730"/>
<path d="M51.3576 33.1353C51.3576 26.1208 47.2735 19.6271 40.9566 16.5933C38.461 15.3885 35.7846 14.7778 33.0001 14.7778C32.3044 14.7778 31.6146 14.8165 30.9334 14.8918C30.544 14.9353 30.1585 14.9943 29.775 15.0629C28.1421 15.3527 26.5595 15.8619 25.0455 16.5923H25.0445H25.0436C18.7257 19.629 14.6426 26.1218 14.6426 33.1353C14.6426 41.203 19.8812 48.0571 27.1305 50.5131C24.3112 51.9527 22.3721 54.8793 22.3721 58.2561C22.3721 58.7894 22.8049 59.2223 23.3382 59.2223H42.6619C43.1953 59.2223 43.6281 58.7894 43.6281 58.2561C43.6281 54.8793 41.689 51.9527 38.8696 50.5131C46.1189 48.0571 51.3576 41.203 51.3576 33.1353ZM27.1537 17.8059C27.3952 17.7131 27.6358 17.6213 27.8812 17.5411C28.1692 17.4464 28.4609 17.3682 28.7537 17.2889C29.0349 17.2145 29.3141 17.1353 29.5991 17.0754C29.8542 17.0213 30.1131 16.9865 30.3711 16.945C30.687 16.8938 31.003 16.8358 31.3208 16.8039C31.5711 16.7788 31.8262 16.7759 32.0793 16.7624C32.6928 16.7286 33.3073 16.7286 33.9208 16.7624C34.174 16.7759 34.4291 16.7788 34.6793 16.8039C34.9972 16.8358 35.3122 16.8947 35.6271 16.945C35.8861 16.9865 36.146 17.0223 36.402 17.0764C36.6851 17.1363 36.9643 17.2145 37.2436 17.2889C37.5373 17.3682 37.83 17.4464 38.1199 17.5421C38.3643 17.6223 38.6049 17.7141 38.8455 17.8068C39.0213 17.8745 39.1943 17.9508 39.3682 18.0242C38.4204 20.6986 35.9064 22.5073 33.0001 22.5073C30.0938 22.5073 27.5798 20.6986 26.632 18.0223C26.8059 17.9488 26.9788 17.8725 27.1537 17.8059ZM41.6957 33.1353C41.6957 37.9295 37.7943 41.831 33.0001 41.831C28.2059 41.831 24.3044 37.9295 24.3044 33.1353C24.3044 28.3411 28.2059 24.4397 33.0001 24.4397C37.7943 24.4397 41.6957 28.3411 41.6957 33.1353ZM41.6271 57.2899H24.373C24.8436 54.0165 27.6658 51.4928 31.0677 51.4928H34.9324C38.3344 51.4928 41.1566 54.0165 41.6271 57.2899ZM33.0001 49.5605C23.9431 49.5605 16.5749 42.1923 16.5749 33.1353C16.5749 27.2368 19.803 21.7517 24.8861 18.858C25.631 20.8174 27.031 22.401 28.8068 23.373C25.0262 25.003 22.3721 28.7643 22.3721 33.1353C22.3721 38.9952 27.1402 43.7634 33.0001 43.7634C38.86 43.7634 43.6281 38.9952 43.6281 33.1353C43.6281 28.7643 40.974 25.003 37.1933 23.373C38.9692 22.401 40.3692 20.8184 41.1141 18.858C46.1972 21.7508 49.4252 27.2368 49.4252 33.1353C49.4252 42.1923 42.0571 49.5605 33.0001 49.5605Z" fill="white" stroke="white" stroke-width="1.5" stroke-linecap="round" stroke-linejoin="round"/>
<path d="M33.0008 28.3044C30.3371 28.3044 28.1699 30.4716 28.1699 33.1354C28.1699 35.7991 30.3371 37.9663 33.0008 37.9663C35.6646 37.9663 37.8318 35.7991 37.8318 33.1354C37.8318 30.4716 35.6646 28.3044 33.0008 28.3044ZM33.0008 36.0339C31.4028 36.0339 30.1023 34.7334 30.1023 33.1354C30.1023 31.5373 31.4028 30.2368 33.0008 30.2368C34.5989 30.2368 35.8994 31.5373 35.8994 33.1354C35.8994 34.7334 34.5989 36.0339 33.0008 36.0339Z" fill="white" stroke="white" stroke-width="1.5" stroke-linecap="round" stroke-linejoin="round"/>
</svg>
