<svg width="98" height="93" viewBox="0 0 98 93" fill="none" xmlns="http://www.w3.org/2000/svg">
<path fill-rule="evenodd" clip-rule="evenodd" d="M92.6842 45.4321L26.5191 9.80939C35.545 7.70788 50.0682 10.7704 64.4777 18.5284C78.9628 26.2884 89.3802 36.6923 92.6842 45.4321Z" fill="#D22730" stroke="#26213F" stroke-width="2" stroke-miterlimit="10" stroke-linecap="round" stroke-linejoin="round"/>
<path fill-rule="evenodd" clip-rule="evenodd" d="M54.1075 31.74L41.6032 33.825L26.4685 36.3114L26.2553 36.3513C26.1526 36.2573 26.0661 36.1334 25.9634 36.0394C24.0385 33.9203 22.3403 31.8072 21.0633 29.7661C19.927 28.0328 19.0607 26.3676 18.4805 24.7404C17.1361 21.1162 17.082 17.7999 18.5348 15.1016C18.8899 14.442 19.3341 13.8304 19.792 13.2648L54.1075 31.74Z" fill="#D22730" stroke="#26213F" stroke-width="2" stroke-miterlimit="10" stroke-linecap="round" stroke-linejoin="round"/>
<path d="M26.2422 36.305L15.1689 56.8723C7.75115 49.0114 4.54029 41.0952 7.47809 35.6386L18.5352 15.1013C17.0824 17.7996 17.1365 21.1159 18.4809 24.7401C19.0611 26.3673 19.9274 28.0325 21.0636 29.7658C22.3704 31.8229 24.0228 33.95 25.9638 36.0391C26.0368 36.1171 26.153 36.257 26.2422 36.305Z" fill="#D22730" stroke="#26213F" stroke-width="2" stroke-miterlimit="10" stroke-linecap="round" stroke-linejoin="round"/>
<path d="M92.573 54.9628C91.1525 57.6012 88.4002 59.3678 84.7101 60.2428C83.0161 60.6843 81.1032 60.8919 79.0146 60.9276C76.5482 60.9532 73.8628 60.7449 71.0043 60.2887C63.619 59.0583 55.1111 56.1406 46.5842 51.5498C45.782 51.1179 44.9501 50.67 44.1802 50.1781C41.1821 48.4866 38.4021 46.6032 35.8489 44.7258L40.6105 43.925L48.2318 42.6528L56.9942 41.1829L68.236 39.3076L93.4304 52.8721C93.2832 53.6436 92.9281 54.3032 92.573 54.9628Z" fill="#D22730" stroke="#26213F" stroke-width="2" stroke-miterlimit="10" stroke-linecap="round" stroke-linejoin="round"/>
<path d="M92.572 54.9626L81.4988 75.5298C76.5917 84.6441 56.0398 83.1698 35.5099 72.1167C31.6179 70.0213 27.9602 67.704 24.7747 65.2928L35.8479 44.7256C38.4011 46.6029 41.181 48.4863 44.1792 50.1779C44.9491 50.6697 45.781 51.1176 46.5832 51.5495C55.11 56.1403 63.618 59.058 71.0032 60.2884C73.8617 60.7446 76.5471 60.9529 79.0135 60.9273C81.1022 60.8916 83.0151 60.684 84.709 60.2425C88.4289 59.3835 91.1515 57.6009 92.572 54.9626Z" fill="#D22730" stroke="#26213F" stroke-width="2" stroke-miterlimit="10" stroke-linecap="round" stroke-linejoin="round"/>
<path d="M54.1082 31.74L48.2487 42.6232L40.6113 43.9254L35.8497 44.7262L30.6682 54.3503L15.1531 56.9026L26.2425 36.3053L26.4394 36.2954L41.6039 33.825L54.1082 31.74Z" fill="#D22730" stroke="#26213F" stroke-width="2" stroke-miterlimit="10" stroke-linecap="round" stroke-linejoin="round"/>
<path d="M92.6846 45.432L89.7468 50.8886L68.2365 39.3076L57.0245 41.1989L48.2484 42.6229L54.1079 31.7396L23.5656 15.2959L26.5195 9.80933L92.6846 45.432Z" fill="#D22730" stroke="#26213F" stroke-width="2" stroke-miterlimit="10" stroke-linecap="round" stroke-linejoin="round"/>
</svg>
