<svg width="66" height="66" viewBox="0 0 66 66" fill="none" xmlns="http://www.w3.org/2000/svg">
<circle cx="33" cy="33" r="33" fill="#D22730"/>
<path d="M55.1273 17.7716H11.8743C10.789 17.7716 9.9082 18.6524 9.9082 19.7377V26.0683V32.4285V47.2624C9.9082 48.3476 10.789 49.2284 11.8743 49.2284H55.1273C56.2126 49.2284 57.0934 48.3476 57.0934 47.2624V32.4285V26.0683V19.7377C57.0934 18.6524 56.2126 17.7716 55.1273 17.7716ZM53.1613 45.2963H13.8403V34.3946H53.1613V45.2963ZM53.1613 30.4625H13.8403V28.0344H53.1613V30.4625ZM53.1613 24.1023H13.8403V21.7037H53.1613V24.1023Z" fill="white"/>
<path d="M48.5445 37.8853H43.1496C42.0644 37.8853 41.1836 38.766 41.1836 39.8513C41.1836 40.9366 42.0644 41.8173 43.1496 41.8173H48.5445C49.6297 41.8173 50.5105 40.9366 50.5105 39.8513C50.5105 38.766 49.6297 37.8853 48.5445 37.8853Z" fill="white"/>
</svg>
