<svg width="40" height="41" viewBox="0 0 40 41" fill="none" xmlns="http://www.w3.org/2000/svg">
<path d="M20 40.002C31.0457 40.002 40 31.0476 40 20.002C40 8.95626 31.0457 0.00195312 20 0.00195312C8.9543 0.00195312 0 8.95626 0 20.002C0 31.0476 8.9543 40.002 20 40.002Z" fill="#D22730"/>
<path d="M30.791 26.4419C30.7626 26.3808 30.7362 26.3301 30.7116 26.2895C30.3054 25.5579 29.5291 24.6598 28.3831 23.5951L28.3589 23.5707L28.3468 23.5587L28.3345 23.5465H28.3222C27.8021 23.0507 27.4728 22.7173 27.3349 22.5466C27.0825 22.2215 27.026 21.8924 27.1639 21.559C27.2613 21.307 27.6273 20.775 28.2611 19.9621C28.5945 19.5313 28.8585 19.186 29.0535 18.9259C30.4596 17.0565 31.0693 15.8619 30.8822 15.3417L30.8096 15.2201C30.7608 15.1469 30.6348 15.08 30.4319 15.0189C30.2284 14.958 29.9684 14.9479 29.6514 14.9885L26.1404 15.0127C26.0835 14.9926 26.0023 14.9945 25.8965 15.0189C25.7908 15.0433 25.7379 15.0556 25.7379 15.0556L25.6768 15.0861L25.6283 15.1228C25.5877 15.147 25.543 15.1897 25.4942 15.2507C25.4456 15.3114 25.405 15.3827 25.3726 15.464C24.9903 16.4474 24.5557 17.3618 24.0679 18.207C23.7672 18.711 23.491 19.1478 23.2388 19.5176C22.9869 19.8873 22.7756 20.1597 22.605 20.3343C22.4342 20.5091 22.2801 20.6491 22.1416 20.7548C22.0034 20.8607 21.8979 20.9054 21.8248 20.889C21.7516 20.8727 21.6826 20.8564 21.6174 20.8402C21.5036 20.767 21.4122 20.6675 21.3432 20.5415C21.274 20.4155 21.2273 20.257 21.2029 20.066C21.1787 19.8749 21.1643 19.7105 21.1602 19.5723C21.1564 19.4342 21.1582 19.2389 21.1664 18.987C21.1749 18.7349 21.1787 18.5644 21.1787 18.475C21.1787 18.1661 21.1847 17.8308 21.1968 17.4692C21.2091 17.1075 21.219 16.8209 21.2274 16.6098C21.2357 16.3985 21.2395 16.1749 21.2395 15.9392C21.2395 15.7035 21.2251 15.5187 21.1968 15.3845C21.1688 15.2505 21.1258 15.1204 21.0691 14.9943C21.0121 14.8684 20.9287 14.7709 20.8192 14.7018C20.7095 14.6327 20.5731 14.5778 20.4108 14.5371C19.98 14.4396 19.4314 14.3869 18.7648 14.3787C17.2532 14.3625 16.2819 14.4601 15.8511 14.6714C15.6805 14.7607 15.526 14.8827 15.3879 15.037C15.2416 15.2159 15.2212 15.3135 15.3268 15.3295C15.8145 15.4026 16.1598 15.5774 16.363 15.8537L16.4363 16.0001C16.4932 16.1057 16.5501 16.2928 16.607 16.5609C16.6638 16.8291 16.7005 17.1257 16.7167 17.4507C16.7572 18.0441 16.7572 18.5521 16.7167 18.9746C16.676 19.3974 16.6375 19.7264 16.6009 19.9621C16.5642 20.1979 16.5094 20.3889 16.4363 20.5351C16.363 20.6814 16.3143 20.7708 16.2899 20.8033C16.2655 20.8357 16.2452 20.8562 16.229 20.8642C16.1234 20.9047 16.0135 20.9253 15.8998 20.9253C15.7859 20.9253 15.6478 20.8683 15.4853 20.7545C15.3228 20.6407 15.1542 20.4843 14.9794 20.2851C14.8047 20.0859 14.6076 19.8076 14.388 19.45C14.1687 19.0924 13.9411 18.6698 13.7054 18.1822L13.5104 17.8285C13.3885 17.601 13.2219 17.2698 13.0106 16.835C12.7992 16.4001 12.6123 15.9794 12.4498 15.5731C12.3848 15.4024 12.2873 15.2725 12.1572 15.183L12.0962 15.1464C12.0557 15.1139 11.9905 15.0794 11.9012 15.0427C11.8118 15.006 11.7184 14.9797 11.6208 14.9636L8.28039 14.9878C7.93905 14.9878 7.70744 15.0651 7.58549 15.2196L7.53668 15.2926C7.5123 15.3333 7.5 15.3983 7.5 15.4878C7.5 15.5772 7.52438 15.6869 7.57319 15.8169C8.06083 16.963 8.59112 18.0683 9.16408 19.133C9.73703 20.1976 10.2349 21.0553 10.6574 21.7051C11.08 22.3554 11.5108 22.9691 11.9497 23.546C12.3886 24.1231 12.6792 24.4929 12.8213 24.6554C12.9636 24.8182 13.0754 24.9399 13.1567 25.0211L13.4615 25.3137C13.6566 25.5088 13.943 25.7424 14.321 26.0146C14.699 26.287 15.1175 26.5552 15.5767 26.8195C16.036 27.0835 16.5703 27.2988 17.1799 27.4654C17.7895 27.6322 18.3828 27.6991 18.9598 27.6668H20.3619C20.6462 27.6422 20.8616 27.5528 21.0081 27.3985L21.0566 27.3374C21.0892 27.2889 21.1197 27.2135 21.1479 27.1121C21.1764 27.0105 21.1906 26.8986 21.1906 26.7769C21.1823 26.4275 21.2089 26.1125 21.2697 25.8322C21.3304 25.5519 21.3997 25.3406 21.4772 25.1982C21.5546 25.0561 21.6419 24.9361 21.7392 24.8388C21.8366 24.7413 21.906 24.6823 21.9468 24.6619C21.9873 24.6415 22.0196 24.6276 22.044 24.6193C22.239 24.5543 22.4686 24.6172 22.733 24.8084C22.9972 24.9994 23.245 25.2352 23.4767 25.5155C23.7084 25.796 23.9867 26.1108 24.3117 26.4602C24.637 26.8098 24.9214 27.0696 25.1651 27.2405L25.4088 27.3868C25.5716 27.4844 25.7829 27.5738 26.0431 27.6551C26.3027 27.7363 26.5302 27.7566 26.7256 27.716L29.8464 27.6674C30.1551 27.6674 30.3953 27.6162 30.5657 27.5148C30.7364 27.4132 30.8378 27.3013 30.8705 27.1796C30.9032 27.0577 30.9049 26.9195 30.8767 26.7649C30.8478 26.6107 30.8193 26.5029 30.791 26.4419Z" fill="white"/>
</svg>
