<svg width="40" height="41" viewBox="0 0 40 41" fill="none" xmlns="http://www.w3.org/2000/svg">
<path d="M20 40.4365C31.0457 40.4365 40 31.4822 40 20.4365C40 9.39083 31.0457 0.436523 20 0.436523C8.9543 0.436523 0 9.39083 0 20.4365C0 31.4822 8.9543 40.4365 20 40.4365Z" fill="#D22730"/>
<path d="M26.6914 12.3375H13.3087C10.6831 12.3375 8.55469 14.466 8.55469 17.0916V23.7816C8.55469 26.4072 10.6832 28.5357 13.3087 28.5357H26.6914C29.317 28.5357 31.4455 26.4071 31.4455 23.7816V17.0916C31.4455 14.466 29.317 12.3375 26.6914 12.3375ZM23.4762 20.7621L17.2168 23.7474C17.0499 23.827 16.8572 23.7055 16.8572 23.5207V17.3634C16.8572 17.1759 17.055 17.0544 17.222 17.1392L23.4814 20.3111C23.6678 20.4054 23.6645 20.6724 23.4762 20.7621Z" fill="white"/>
</svg>
