<svg width="40" height="40" viewBox="0 0 40 40" fill="none" xmlns="http://www.w3.org/2000/svg">
<g id="facebook1">
<path id="Vector" d="M20 40C31.0457 40 40 31.0457 40 20C40 8.9543 31.0457 0 20 0C8.9543 0 0 8.9543 0 20C0 31.0457 8.9543 40 20 40Z"/>
<path id="f1" d="M22.4361 33V21.5972H26.262L26.836 17.152H22.4361V14.3143C22.4361 13.0277 22.7919 12.151 24.6389 12.151L26.9909 12.15V8.17404C26.5841 8.12118 25.188 8 23.563 8C20.1697 8 17.8467 10.0712 17.8467 13.8741V17.152H14.0091V21.5972H17.8467V33H22.4361Z" fill="white"/>
</g>
</svg>
