<svg width="40" height="41" viewBox="0 0 40 41" fill="none" xmlns="http://www.w3.org/2000/svg">
<rect y="0.218262" width="40" height="40" rx="20"/>
<path d="M20 9.21851C16.6863 9.21851 14 11.6809 14 14.7184C14 17.7559 16.6863 20.2185 20 20.2185C23.3137 20.2185 26 17.7559 26 14.7184C26 11.6809 23.3137 9.21851 20 9.21851ZM20 16.9921C18.6302 16.9921 17.5197 15.9741 17.5197 14.7185C17.5197 13.4629 18.6302 12.4449 20 12.4449C21.3698 12.4449 22.4803 13.4629 22.4803 14.7185C22.4803 15.9741 21.3698 16.9921 20 16.9921Z" fill="white"/>
<path d="M21.9354 25.0102C24.1852 24.5495 25.5334 23.4786 25.6047 23.4212C26.2631 22.8905 26.3688 21.9239 25.8408 21.2621C25.313 20.6004 24.3514 20.4941 23.6929 21.0247C23.6789 21.036 22.241 22.1447 19.8751 22.1463C17.5092 22.1447 16.0409 21.036 16.027 21.0247C15.3685 20.4941 14.4069 20.6004 13.879 21.2621C13.351 21.9239 13.4568 22.8905 14.1151 23.4212C14.1874 23.4795 15.5912 24.5782 17.9041 25.0281L14.6807 28.4141C14.0949 29.0247 14.1125 29.997 14.72 30.5858C15.0165 30.8731 15.3987 31.016 15.7806 31.016C16.1809 31.016 16.5808 30.8587 16.8806 30.5461L19.8752 27.3399L23.1721 30.5669C23.7695 31.1664 24.7368 31.1654 25.3331 30.5652C25.9293 29.9649 25.9286 28.9925 25.3314 28.3932L21.9354 25.0102Z" fill="white"/>
<path d="M19.8769 22.1462C19.8705 22.1462 19.8831 22.1464 19.8769 22.1465C19.8706 22.1464 19.8832 22.1462 19.8769 22.1462Z" fill="white"/>
</svg>
