<svg width="27" height="27" viewBox="0 0 27 27" fill="none" xmlns="http://www.w3.org/2000/svg">
<path d="M16.2152 2.18193C17.925 2.18193 19.5964 2.69258 21.0181 3.64931C22.4398 4.60604 23.5478 5.96588 24.2021 7.55686C24.8564 9.14785 25.0276 10.8985 24.6941 12.5875C24.3605 14.2765 23.5371 15.8279 22.3281 17.0456C21.1191 18.2633 19.5787 19.0925 17.9017 19.4285C16.2248 19.7644 14.4866 19.592 12.9069 18.933C11.3272 18.274 9.97706 17.158 9.02713 15.7262C8.07721 14.2943 7.57018 12.6109 7.57018 10.8889C7.57018 8.57964 8.48099 6.365 10.1022 4.73213C11.7235 3.09927 13.9224 2.18193 16.2152 2.18193ZM16.2152 0.00214449C13.7218 0.00469356 11.3059 0.874945 9.3765 2.46557C7.44708 4.0562 6.12268 6.26946 5.62752 8.73067C5.13235 11.1919 5.49685 13.7498 6.6593 15.9714C7.82175 18.193 9.71073 19.9418 12.0064 20.9217C14.6465 22.0359 17.6175 22.0504 20.2682 20.9621C22.9188 19.8737 25.0329 17.7713 26.1471 15.1157C27.2612 12.46 27.2845 9.46782 26.2118 6.79492C25.139 4.12203 23.0579 1.98653 20.4245 0.856515C19.0929 0.288687 17.6612 -0.00262817 16.2152 1.7865e-05V0.00214449Z"/>
<path d="M0.453285 25.0005L5.88089 19.534C6.40349 19.0077 7.17577 18.9242 7.59701 19.3485C8.01825 19.7727 7.93538 20.5505 7.41278 21.0769L1.98518 26.5439C1.46258 27.0702 0.6903 27.1537 0.269056 26.7294C-0.152187 26.3052 -0.069839 25.5274 0.453285 25.0005Z"/>
</svg>
