<svg width="600" height="205" viewBox="0 0 600 205" fill="none" xmlns="http://www.w3.org/2000/svg">
<rect width="600" height="205" fill="#26213F"/>
<path fill-rule="evenodd" clip-rule="evenodd" d="M341.731 64.7072L275.566 29.0845C284.591 26.983 299.115 30.0456 313.524 37.8035C328.009 45.5635 338.427 55.9674 341.731 64.7072Z" fill="#D22730" stroke="#26213F" stroke-width="2" stroke-miterlimit="10" stroke-linecap="round" stroke-linejoin="round"/>
<path fill-rule="evenodd" clip-rule="evenodd" d="M303.154 51.0151L290.65 53.1001L275.515 55.5865L275.302 55.6265C275.2 55.5325 275.113 55.4085 275.01 55.3146C273.085 53.1954 271.387 51.0823 270.11 49.0412C268.974 47.308 268.108 45.6428 267.527 44.0156C266.183 40.3913 266.129 37.0751 267.582 34.3768C267.937 33.7172 268.381 33.1056 268.839 32.5399L303.154 51.0151Z" fill="#D22730" stroke="#26213F" stroke-width="2" stroke-miterlimit="10" stroke-linecap="round" stroke-linejoin="round"/>
<path d="M275.289 55.5802L264.215 76.1474C256.798 68.2865 253.587 60.3703 256.524 54.9137L267.582 34.3765C266.129 37.0748 266.183 40.391 267.527 44.0153C268.107 45.6425 268.974 47.3077 270.11 49.0409C271.417 51.098 273.069 53.2251 275.01 55.3143C275.083 55.3922 275.199 55.5322 275.289 55.5802Z" fill="#D22730" stroke="#26213F" stroke-width="2" stroke-miterlimit="10" stroke-linecap="round" stroke-linejoin="round"/>
<path d="M341.619 74.238C340.199 76.8763 337.447 78.643 333.756 79.5179C332.063 79.9594 330.15 80.167 328.061 80.2027C325.595 80.2283 322.909 80.02 320.051 79.5638C312.665 78.3334 304.157 75.4157 295.631 70.8249C294.828 70.393 293.997 69.9451 293.227 69.4533C290.228 67.7618 287.449 65.8784 284.895 64.001L289.657 63.2001L297.278 61.928L306.041 60.4581L317.282 58.5828L342.477 72.1472C342.33 72.9188 341.975 73.5784 341.619 74.238Z" fill="#D22730" stroke="#26213F" stroke-width="2" stroke-miterlimit="10" stroke-linecap="round" stroke-linejoin="round"/>
<path d="M341.619 74.2377L330.546 94.8049C325.639 103.919 305.087 102.445 284.557 91.3919C280.665 89.2964 277.008 86.9791 273.822 84.5679L284.895 64.0007C287.448 65.8781 290.228 67.7615 293.227 69.453C293.996 69.9449 294.828 70.3928 295.631 70.8246C304.157 75.4154 312.665 78.3331 320.051 79.5636C322.909 80.0198 325.594 80.2281 328.061 80.2024C330.15 80.1668 332.062 79.9592 333.756 79.5177C337.476 78.6587 340.199 76.8761 341.619 74.2377Z" fill="#D22730" stroke="#26213F" stroke-width="2" stroke-miterlimit="10" stroke-linecap="round" stroke-linejoin="round"/>
<path d="M303.155 51.0151L297.295 61.8984L289.658 63.2005L284.896 64.0014L279.715 73.6254L264.199 76.1777L275.289 55.5805L275.486 55.5705L290.65 53.1001L303.155 51.0151Z" fill="#D22730" stroke="#26213F" stroke-width="2" stroke-miterlimit="10" stroke-linecap="round" stroke-linejoin="round"/>
<path d="M341.731 64.7072L338.793 70.1638L317.283 58.5828L306.071 60.4741L297.295 61.898L303.154 51.0148L272.612 34.5711L275.566 29.0845L341.731 64.7072Z" fill="#D22730" stroke="#26213F" stroke-width="2" stroke-miterlimit="10" stroke-linecap="round" stroke-linejoin="round"/>
<path fill-rule="evenodd" clip-rule="evenodd" d="M199.376 116.078L144.361 147.842C146.859 140.416 155.514 131.331 167.495 124.414C179.512 117.443 191.623 114.572 199.376 116.078Z" fill="#D22730" stroke="#26213F" stroke-width="2" stroke-miterlimit="10" stroke-linecap="round" stroke-linejoin="round"/>
<path fill-rule="evenodd" clip-rule="evenodd" d="M172.391 137.741L168.335 147.661L163.4 159.651L163.334 159.822C163.221 159.855 163.093 159.862 162.98 159.894C160.601 160.337 158.326 160.619 156.291 160.631C154.54 160.678 152.957 160.562 151.529 160.256C148.325 159.613 145.916 158.179 144.62 155.935C144.304 155.387 144.061 154.795 143.858 154.215L172.391 137.741Z" fill="#D22730" stroke="#26213F" stroke-width="2" stroke-miterlimit="10" stroke-linecap="round" stroke-linejoin="round"/>
<path d="M163.295 159.811L173.168 176.913C164.219 178.756 157.099 177.548 154.479 173.011L144.62 155.935C145.916 158.178 148.325 159.613 151.529 160.256C152.957 160.561 154.539 160.678 156.291 160.631C158.351 160.605 160.615 160.361 162.98 159.894C163.068 159.876 163.221 159.854 163.295 159.811Z" fill="#D22730" stroke="#26213F" stroke-width="2" stroke-miterlimit="10" stroke-linecap="round" stroke-linejoin="round"/>
<path d="M206.182 120.392C207.448 122.586 207.496 125.35 206.486 128.393C206.051 129.808 205.351 131.276 204.449 132.794C203.371 134.579 202.028 136.418 200.43 138.271C196.265 143.037 190.386 147.86 183.296 151.953C182.629 152.338 181.938 152.738 181.242 153.073C178.693 154.478 176.104 155.64 173.619 156.643L175.159 152.862L177.629 146.816L180.465 139.86L184.11 130.942L205.059 118.847C205.549 119.295 205.865 119.844 206.182 120.392Z" fill="#D22730" stroke="#26213F" stroke-width="2" stroke-miterlimit="10" stroke-linecap="round" stroke-linejoin="round"/>
<path d="M206.182 120.392L216.055 137.494C220.431 145.072 210.24 159.199 193.17 169.054C189.934 170.923 186.642 172.524 183.493 173.744L173.619 156.643C176.104 155.64 178.693 154.478 181.242 153.073C181.938 152.737 182.629 152.338 183.296 151.953C190.386 147.86 196.264 143.037 200.43 138.271C202.028 136.418 203.371 134.579 204.448 132.794C205.351 131.276 206.051 129.808 206.486 128.393C207.521 125.336 207.448 122.586 206.182 120.392Z" fill="#D22730" stroke="#26213F" stroke-width="2" stroke-miterlimit="10" stroke-linecap="round" stroke-linejoin="round"/>
<path d="M172.391 137.741L177.616 146.79L175.159 152.862L173.62 156.642L178.24 164.645L173.183 176.938L163.295 159.811L163.376 159.665L168.336 147.661L172.391 137.741Z" fill="#D22730" stroke="#26213F" stroke-width="2" stroke-miterlimit="10" stroke-linecap="round" stroke-linejoin="round"/>
<path d="M199.376 116.078L201.996 120.615L184.11 130.941L180.49 139.846L177.615 146.79L172.391 137.741L146.995 152.403L144.361 147.841L199.376 116.078Z" fill="#D22730" stroke="#26213F" stroke-width="2" stroke-miterlimit="10" stroke-linecap="round" stroke-linejoin="round"/>
<path fill-rule="evenodd" clip-rule="evenodd" d="M552.611 55.4204L513.858 68.9498C516.339 64.5374 522.928 59.8138 531.368 56.8673C539.836 53.8912 547.871 53.5292 552.611 55.4204Z" fill="#D22730" stroke="#26213F" stroke-width="2" stroke-miterlimit="10" stroke-linecap="round" stroke-linejoin="round"/>
<path fill-rule="evenodd" clip-rule="evenodd" d="M532.869 65.9182L529.098 71.7263L524.52 78.7424L524.457 78.843C524.381 78.8498 524.299 78.839 524.224 78.8457C522.66 78.84 521.182 78.7452 519.889 78.5073C518.771 78.3261 517.781 78.0612 516.911 77.695C514.955 76.9004 513.598 75.6994 513.047 74.119C512.912 73.7326 512.829 73.3281 512.77 72.935L532.869 65.9182Z" fill="#D22730" stroke="#26213F" stroke-width="2" stroke-miterlimit="10" stroke-linecap="round" stroke-linejoin="round"/>
<path d="M524.433 78.8312L528.639 90.8776C522.736 90.9685 518.362 89.3435 517.246 86.1475L513.046 74.1187C513.598 75.6991 514.954 76.9001 516.911 77.6947C517.78 78.0609 518.771 78.3258 519.888 78.507C521.199 78.7388 522.666 78.8573 524.224 78.8454C524.282 78.8447 524.381 78.8495 524.433 78.8312Z" fill="#D22730" stroke="#26213F" stroke-width="2" stroke-miterlimit="10" stroke-linecap="round" stroke-linejoin="round"/>
<path d="M556.411 58.9797C556.95 60.525 556.647 62.2856 555.639 64.0954C555.193 64.9408 554.571 65.7883 553.815 66.6432C552.916 67.6466 551.842 68.652 550.604 69.6358C547.385 72.1584 543.072 74.5112 538.078 76.2548C537.608 76.4188 537.121 76.5889 536.638 76.7178C534.851 77.3024 533.067 77.7282 531.369 78.0649L532.802 75.8507L535.1 72.3102L537.738 68.2369L541.128 63.015L555.884 57.8632C556.141 58.207 556.276 58.5933 556.411 58.9797Z" fill="#D22730" stroke="#26213F" stroke-width="2" stroke-miterlimit="10" stroke-linecap="round" stroke-linejoin="round"/>
<path d="M556.41 58.9794L560.616 71.0258C562.48 76.3641 554.307 84.1029 542.283 88.3009C540.003 89.0967 537.721 89.7163 535.574 90.111L531.369 78.0646C533.067 77.7279 534.851 77.3021 536.638 76.7175C537.12 76.5886 537.607 76.4185 538.077 76.2545C543.071 74.5109 547.384 72.1581 550.604 69.6355C551.841 68.6517 552.916 67.6463 553.815 66.6429C554.57 65.788 555.192 64.9405 555.639 64.0951C556.664 62.2792 556.95 60.5247 556.41 58.9794Z" fill="#D22730" stroke="#26213F" stroke-width="2" stroke-miterlimit="10" stroke-linecap="round" stroke-linejoin="round"/>
<path d="M532.869 65.918L535.094 72.2924L532.803 75.8504L531.37 78.0647L533.338 83.7015L528.645 90.8953L524.434 78.8313L524.502 78.7483L529.098 71.726L532.869 65.918Z" fill="#D22730" stroke="#26213F" stroke-width="2" stroke-miterlimit="10" stroke-linecap="round" stroke-linejoin="round"/>
<path d="M552.611 55.4203L553.726 58.6163L541.128 63.0147L537.756 68.2306L535.093 72.2924L532.868 65.918L514.979 72.1632L513.857 68.9497L552.611 55.4203Z" fill="#D22730" stroke="#26213F" stroke-width="2" stroke-miterlimit="10" stroke-linecap="round" stroke-linejoin="round"/>
<path fill-rule="evenodd" clip-rule="evenodd" d="M479.852 136.803C479.034 138.491 477.469 139.8 475.32 140.656L447.451 120.89L449.296 120.225L465.712 114.283C472.755 119.354 477.967 125.013 479.832 130.118C480.797 132.754 480.74 135.013 479.852 136.803Z" fill="#D22730" stroke="#26213F" stroke-width="2" stroke-miterlimit="10" stroke-linecap="round" stroke-linejoin="round"/>
<path fill-rule="evenodd" clip-rule="evenodd" d="M467.719 141.939C467.214 141.932 466.704 141.938 466.165 141.915C462.436 141.752 458.104 141.044 453.363 139.696C450.84 138.965 448.312 138.114 445.85 137.125C441.654 135.482 437.582 133.493 433.805 131.291C427.09 127.379 421.311 122.801 417.444 118.251C415.364 115.82 413.835 113.386 412.986 111.077C412.126 108.746 412.047 106.725 412.613 105.034C414.669 99.0836 425.07 97.3946 439.438 101.49C444.843 103.04 450.225 105.206 455.285 107.86L431.685 116.406L445.039 125.872L455.826 133.519L463.008 138.607L467.719 141.939Z" fill="#D22730" stroke="#26213F" stroke-width="2" stroke-miterlimit="10" stroke-linecap="round" stroke-linejoin="round"/>
<path d="M467.719 141.939L458.527 160.918C454.442 160.922 449.582 160.212 444.171 158.676C425.662 153.388 407.628 140.571 403.794 130.056C402.718 127.079 402.859 124.606 404.058 122.696L412.612 105.034C412.047 106.725 412.126 108.746 412.986 111.077C413.835 113.386 415.363 115.82 417.444 118.251C421.311 122.801 427.09 127.379 433.805 131.291C437.582 133.494 441.654 135.482 445.85 137.125C448.312 138.114 450.84 138.965 453.363 139.696C458.104 141.044 462.436 141.752 466.165 141.915C466.703 141.938 467.214 141.932 467.719 141.939Z" fill="#D22730" stroke="#26213F" stroke-width="2" stroke-miterlimit="10" stroke-linecap="round" stroke-linejoin="round"/>
<path d="M479.852 136.802L470.673 155.754C469.856 157.442 468.291 158.751 466.135 159.622L475.32 140.656C477.47 139.799 479.034 138.49 479.852 136.802Z" fill="#D22730" stroke="#26213F" stroke-width="2" stroke-miterlimit="10" stroke-linecap="round" stroke-linejoin="round"/>
<path d="M444.86 126.241L444.866 126.229" stroke="#26213F" stroke-width="2" stroke-miterlimit="10" stroke-linecap="round" stroke-linejoin="round"/>
<path d="M455.285 107.86L449.296 120.225L447.451 120.89L445.038 125.872L431.685 116.406L455.285 107.86Z" fill="#D22730" stroke="#26213F" stroke-width="2" stroke-miterlimit="10" stroke-linecap="round" stroke-linejoin="round"/>
<path d="M449.224 120.376L449.297 120.225" stroke="#26213F" stroke-width="2" stroke-miterlimit="10" stroke-linecap="round" stroke-linejoin="round"/>
<path d="M475.32 140.656L466.135 159.622L460.939 155.937L467.719 141.939L463.007 138.607L455.825 133.519L445.039 125.872L447.451 120.89L475.32 140.656Z" fill="#D22730" stroke="#26213F" stroke-width="2" stroke-miterlimit="10" stroke-linecap="round" stroke-linejoin="round"/>
<path fill-rule="evenodd" clip-rule="evenodd" d="M46.6614 109.464C45.9781 108.238 45.8479 106.716 46.2461 105.031L70.3293 96.4414L69.9444 97.8578L66.5353 110.471C60.4031 112.608 54.6959 113.372 50.7669 112.322C48.7366 111.782 47.3768 110.776 46.6614 109.464Z" fill="#D22730" stroke="#26213F" stroke-width="2" stroke-miterlimit="10" stroke-linecap="round" stroke-linejoin="round"/>
<path fill-rule="evenodd" clip-rule="evenodd" d="M48.7251 99.8214C48.946 99.5154 49.1614 99.1994 49.4071 98.8795C51.1083 96.6641 53.4031 94.3138 56.2654 91.9868C57.7968 90.7543 59.4045 89.5709 61.0677 88.4871C63.8769 86.6208 66.8443 84.9798 69.8165 83.6107C75.0982 81.1762 80.3858 79.6008 84.8353 79.1848C87.2185 78.9539 89.367 79.0628 91.1466 79.534C92.9443 80.0083 94.2165 80.8277 95.0103 81.9007C97.7735 85.7168 94.3416 92.8162 85.6605 99.8627C82.389 102.509 78.7502 104.877 74.9501 106.838L79.8493 88.7051L68.3126 92.823L58.9933 96.1492L52.7906 98.3654L48.7251 99.8214Z" fill="#D22730" stroke="#26213F" stroke-width="2" stroke-miterlimit="10" stroke-linecap="round" stroke-linejoin="round"/>
<path d="M48.7251 99.8214L41.0416 86.0363C42.7934 83.5313 45.316 80.8581 48.5819 78.2016C59.7715 69.1298 75.3724 63.5827 83.4631 65.7489C85.7496 66.3687 87.2052 67.517 87.8601 69.0724L95.0103 81.9006C94.2165 80.8276 92.9443 80.0083 91.1466 79.534C89.367 79.0627 87.2185 78.9538 84.8353 79.1848C80.3858 79.6007 75.0982 81.1762 69.8165 83.6106C66.8443 84.9798 63.8769 86.6207 61.0677 88.487C59.4045 89.5708 57.7968 90.7543 56.2654 91.9867C53.4031 94.3137 51.1083 96.664 49.4071 98.8795C49.1614 99.1994 48.946 99.5154 48.7251 99.8214Z" fill="#D22730" stroke="#26213F" stroke-width="2" stroke-miterlimit="10" stroke-linecap="round" stroke-linejoin="round"/>
<path d="M46.6613 109.464L38.9889 95.6985C38.3055 94.4724 38.1753 92.9512 38.568 91.2561L46.246 105.031C45.8477 106.716 45.978 108.238 46.6613 109.464Z" fill="#D22730" stroke="#26213F" stroke-width="2" stroke-miterlimit="10" stroke-linecap="round" stroke-linejoin="round"/>
<path d="M68.1629 92.5545L68.1682 92.564" stroke="#26213F" stroke-width="2" stroke-miterlimit="10" stroke-linecap="round" stroke-linejoin="round"/>
<path d="M74.9502 106.838L69.9445 97.8574L70.3294 96.441L68.3127 92.8228L79.8494 88.7048L74.9502 106.838Z" fill="#D22730" stroke="#26213F" stroke-width="2" stroke-miterlimit="10" stroke-linecap="round" stroke-linejoin="round"/>
<path d="M69.8831 97.7478L69.9442 97.8574" stroke="#26213F" stroke-width="2" stroke-miterlimit="10" stroke-linecap="round" stroke-linejoin="round"/>
<path d="M46.246 105.031L38.568 91.2558L43.0582 89.6545L48.725 99.8214L52.7905 98.3653L58.9932 96.1491L68.3125 92.8229L70.3292 96.4412L46.246 105.031Z" fill="#D22730" stroke="#26213F" stroke-width="2" stroke-miterlimit="10" stroke-linecap="round" stroke-linejoin="round"/>
</svg>
